<?xml version="1.0" standalone="no"?>
<!DOCTYPE svg PUBLIC "-//W3C//DTD SVG 1.1//EN" "http://www.w3.org/Graphics/SVG/1.1/DTD/svg11.dtd" >
<!--
2013-9-30: Created.
-->
<svg>
<metadata>
Created by iconfont
</metadata>
<defs>

<font id="iconfont" horiz-adv-x="1024" >
  <font-face
    font-family="iconfont"
    font-weight="500"
    font-stretch="normal"
    units-per-em="1024"
    ascent="896"
    descent="-128"
  />
    <missing-glyph />
    
    <glyph glyph-name="fileexcel" unicode="&#58905;" d="M744.765833 427.887692 609.572758 427.887692l-95.66685-140.906194-95.664803 140.906194-135.178749 0 162.045653-242.253416-182.823885-269.293259 262.018575 0 0 91.480504-60.492746 0 50.094932 74.964342 111.278409-166.415171L765.528716-83.629307l-182.808536 269.293259L744.765833 427.887692zM904.998187 612.299749 762.250042 755.018218c-31.098275 31.083949-92.510974 56.529481-136.473231 56.529481L146.201292 811.547699c-43.961234 0-79.929424-35.96819-79.929424-79.929424l0-863.23655c0-43.961234 35.96819-79.928401 79.929424-79.928401L881.551172-211.546675c43.961234 0 79.928401 35.967166 79.928401 79.928401L961.479573 475.844937c0 43.961234-25.445532 105.374956-56.543807 136.455835L904.998187 612.300772zM859.789543 567.092128c3.120061-3.13848 6.243191-6.979972 9.240455-11.31879L705.736934 555.773338 705.736934 719.082774c4.371564-3.03001 8.181333-6.135744 11.302417-9.273201L859.789543 567.092128 859.789543 567.092128zM897.566938-131.618275c0-8.679683-7.305383-15.986089-15.986089-15.986089L146.231991-147.604364c-8.66331 0-15.986089 7.306406-15.986089 15.986089L130.245901 731.618275c0 8.66331 7.322779 15.986089 15.986089 15.986089l479.576543 0c4.807493 0 10.241248-0.608867 15.985066-1.686409l0-254.086929 254.086929 0c1.063215-5.760191 1.686409-11.162224 1.686409-15.986089L897.566938-131.618275z"  horiz-adv-x="1024" />

    
    <glyph glyph-name="iconfonticonfontexcel" unicode="&#58907;" d="M903.388921 612.56427 760.511159 755.43826c-31.065466 31.060438-92.503709 56.561752-136.504005 56.561752l-480.020604 0c-44.005325 0-80.006367-36.001042-80.006367-80.001339l0-863.996103c0-44.000296 36.001042-80.002596 80.006367-80.002596l736.026899 0c44.000296 0 80.006367 35.996014 80.006367 80.002596L960.019817 476.001179C960.019817 520.001475 934.518502 581.498803 903.388921 612.56427L903.388921 612.56427zM704.007236 719.437218c4.312029-3.00082 8.127483-6.123584 11.250247-9.246348l142.877762-142.879019c3.127792-3.122764 6.253071-6.938218 9.315491-11.309333L704.007236 556.002517 704.007236 719.437218 704.007236 719.437218zM896.018243-131.996172c0-8.691944-7.375707-16.004793-16.003536-16.004793l-736.026899 0c-8.75103 0-16.004793 7.375707-16.004793 16.004793l0 863.996103c0 8.686916 7.375707 15.999765 16.004793 15.999765l480.020604 0c4.748261 0 10.248298-0.623547 15.999765-1.748697l0-254.248798 254.258855 0c1.128922-5.75021 1.753726-11.128304 1.753726-15.999765l0-608.004894L896.020757-131.996172zM895.643612-131.996172M520.963489-64.304859l-271.346056 0 0 29.177225c50.557598-3.921055 74.857075 12.628085 72.942434 49.600905L322.559867 370.433154c1.914641 35.012921-22.384836 51.515547-72.942434 49.600905L249.617433 449.211284 518.044384 449.211284c116.7089-3.921055 177.979941-49.600905 183.815638-137.13258-3.919798-91.451473-62.274248-139.091222-175.062093-142.96702l-84.61257 0L442.185358 20.308968c-3.921055-40.847361 22.338322-59.357657 78.77813-55.436602L520.963489-64.304859zM442.185358 358.763018 442.185358 204.124605l26.259377 0c70.025843-1.961156 105.037507 33.051765 105.037507 105.037507C569.561188 375.265643 542.345119 410.278565 491.786264 414.198363 458.689241 412.238464 442.185358 393.774682 442.185358 358.763018z"  horiz-adv-x="1024" />

    
    <glyph glyph-name="shoukuan" unicode="&#58947;" d="M958.859909 257.841831c0 27.938306-22.651906 50.589189-50.588165 50.589189-1.025353 0-2.041496-0.039909-3.051499-0.101307l-98.125855-0.008186 0 320.499501c0 46.566572-37.748742 84.313268-84.313268 84.313268L301.214784 713.134295c-46.564525 0-84.313268-37.746696-84.313268-84.313268L216.901517 308.274454l-107.35096-0.00921-0.031722-0.084934c-26.390044-1.472538-44.38079-23.360034-44.38079-50.339502 0-12.779048 4.751211-24.445762 12.568247-33.351596l-0.098237-0.257873 1.709945-1.493004c2.025123-2.100848 4.228301-4.027733 6.588045-5.754051l346.495572-302.592666 0.825808 0.002047c21.61018-17.228383 48.985668-27.528983 78.772065-27.528983 30.020734 0 57.592696 10.467399 79.280648 27.941376l0.491187 0 355.234607 310.50794C954.400341 234.109314 958.859909 245.453686 958.859909 257.841831zM621.607862 325.293059c18.624173 0 33.724079-15.10093 33.724079-33.727149 0-18.627243-15.10093-33.725102-33.725102-33.725102L554.154587 257.840808 554.154587 215.685709c0-23.282263-18.874883-42.157145-42.155099-42.157145s-42.157145 18.874883-42.157145 42.157145l0 42.155099-67.449181 0c-18.628266 0-33.729196 15.09786-33.729196 33.725102 0 18.626219 15.10093 33.727149 33.729196 33.727149l67.449181 0 0 33.722032-67.449181 0c-18.628266 0-33.729196 15.10093-33.729196 33.727149s15.10093 33.725102 33.729196 33.725102l67.449181 0 0 2.290159-74.844615 74.844615c-13.261025 13.261025-13.261025 34.763758 0 48.02683 13.264095 13.264095 34.765805 13.264095 48.0299 0l68.397786-68.399833 68.673056 68.671009c13.261025 13.262048 34.767851 13.262048 48.028876 0s13.261025-34.765805 0-48.027853l-73.971735-73.971735 0-3.433192 67.452251 0c18.624173 0 33.725102-15.098883 33.725102-33.725102s-15.101953-33.727149-33.725102-33.727149L554.154587 359.015092l0-33.722032L621.607862 325.293059 621.607862 325.293059z"  horiz-adv-x="1024" />

    
    <glyph glyph-name="shangyerenshi" unicode="&#58880;" d="M436.358741 466.357865c57.710376-175.256536 218.611973-175.018106 276.237415 0 18.926048 9.992585 38.442544 39.628556 41.7161 64.097854 3.38612 25.598005 1.354857 59.637262-24.470321 59.637262-5.653767 82.247212-50.864458 151.749146-153.209404 151.749146-100.213399 0-151.207817-60.282968-157.543106-151.749146-25.798573 0-27.824719-34.039257-24.470321-59.637262C397.896754 505.985398 417.412227 476.349427 436.358741 466.357865zM775.752568 324.181749l-65.320705 13.595646L574.466192 66.727119 438.499497 337.776372l-65.320705-13.595646c-27.986401-5.851265-52.999075-17.800411-74.818009-33.458019 0.274246-0.13917 0.51677-0.339738 0.785899-0.49221 116.802216-17.243733 206.482725-117.588115 206.482725-239.147682 0-65.237817-25.932626-124.331703-67.89125-167.876452l491.167532 0L928.90569 142.158089C928.906713 229.766402 865.108688 305.5279 775.752568 324.181749zM285.316699 241.668477c-9.261944 1.400906-18.680455 2.323928-28.370141 2.323928-106.543571 0-192.894242-86.36909-192.894242-192.909591 0-106.549711 86.35067-192.924941 192.894242-192.924941 54.570873 0 103.726409 22.740934 138.835022 59.139935 33.431414 34.69008 54.082756 81.788771 54.082756 133.785006C449.864336 147.962282 378.405841 227.919335 285.316699 241.668477zM269.884218-36.786443l0-29.286-28.152177 0 0 27.28339c-19.244296 0.845251-37.919634 6.022157-48.833195 12.342096l8.634658 33.603329c12.075013-6.605442 28.992311-12.641925 47.673789-12.641925 16.373922 0 27.552519 6.311753 27.552519 17.815761 0 10.908444-9.17701 17.784038-30.42494 24.989137-30.724769 10.323113-51.703569 24.681122-51.703569 52.534494 0 25.266453 17.814738 45.083801 48.536436 51.119261l0 27.275203 28.125571 0 0-25.27464c19.246343-0.86367 32.184003-4.881171 41.660842-9.467629l-8.336876-32.458249c-7.444553 3.170203-20.654412 9.775644-41.364083 9.775644-18.649755 0-24.685215-8.042163-24.685215-16.096607 0-9.477862 10.042727-15.497972 34.458813-24.689309 34.161031-12.05557 47.965431-27.853371 47.965431-53.689806C320.9912-9.211411 302.88482-31.036485 269.884218-36.786443z"  horiz-adv-x="1024" />

    
    <glyph glyph-name="loudong" unicode="&#58950;" d="M345.185228-96.223137M387.233903-96.223137M896.250966-84.251477l0 606.820576-225.127364 0 0 161.682379-512.676405 0 0-768.502955-94.14417 0 0-32.745798 895.392924 0 0 32.745798L896.250966-84.251477zM640.424416-84.251477l-448.208115 0 0 735.757157 448.208115 0L640.424416-84.251477zM862.481861-84.251477l-191.358259 0 0 576.12139 191.358259 0L862.481861-84.251477zM799.036877 363.956637l-64.46829 0 0-127.913275 64.46829 0L799.036877 363.956637zM799.036877 171.575072l-64.46829 0 0-127.913275 64.46829 0L799.036877 171.575072zM383.57456 522.569098l-127.913275 0 0-63.444984 127.913275 0L383.57456 522.569098zM383.57456 331.210839l-127.913275 0 0-64.46829 127.913275 0L383.57456 331.210839zM383.57456 171.575072l-127.913275 0 0-63.444984 127.913275 0L383.57456 171.575072zM575.956126 171.575072l-127.913275 0 0-63.444984 127.913275 0L575.956126 171.575072zM575.956126 331.210839l-127.913275 0 0-64.46829 127.913275 0L575.956126 331.210839zM575.956126 522.569098l-127.913275 0 0-63.444984 127.913275 0L575.956126 522.569098z"  horiz-adv-x="1024" />

    
    <glyph glyph-name="jian1" unicode="&#58891;" d="M587.229378 458.009597L580.722174 458.009597 76.975139 458.009597 76.975139 314.081581 580.722174 314.081581 587.229378 314.081581 940.542216 314.081581 940.542216 458.009597Z"  horiz-adv-x="1024" />

    
    <glyph glyph-name="zhilupai" unicode="&#59031;" d="M927.424 628.096l-125.696 123.52L542.144 751.616 542.144 832 427.904 832l0-80.384L219.2 751.616l0-241.28 582.592 0L927.424 628.096zM427.904-64l114.24 0 0 241.28L427.904 177.28 427.904-64zM96.576 340.928l125.696-117.76 582.592 0L804.864 464.384 222.272 464.384 96.576 340.928zM763.968 423.04l0-158.528L235.904 264.512 151.04 340.928 235.904 423.04 763.968 423.04z"  horiz-adv-x="1024" />

    
    <glyph glyph-name="qingdan" unicode="&#59003;" d="M790.694885 766.690936l-560.567135 0c-28.141944 0-50.960649-22.817682-50.960649-50.960649l0-662.490479c0-28.141944 22.817682-50.960649 50.960649-50.960649l560.567135 0c28.141944 0 50.960649 22.818705 50.960649 50.960649L841.655534 715.730287C841.655534 743.872231 818.836829 766.690936 790.694885 766.690936zM790.694885 91.46029399999998c0-21.113877-17.119913-38.22151-38.22151-38.22151L268.349259 53.23878400000001c-21.126156 0-38.22151 17.107633-38.22151 38.22151L230.127749 677.508777c0 21.101597 17.095353 38.22151 38.22151 38.22151l484.125139 0c21.100574 0 38.22151-17.119913 38.22151-38.22151L790.695908 91.46029399999998zM459.451692 588.327642l-152.881946 0 0-50.960649 152.881946 0L459.451692 588.327642zM561.371966 435.445696L306.569746 435.445696l0-50.960649 254.80222 0L561.371966 435.445696zM306.569746 231.602078l356.722494 0 0 50.960649L306.569746 282.562726 306.569746 231.602078z"  horiz-adv-x="1024" />

    
    <glyph glyph-name="ico2" unicode="&#58987;" d="M511.807488 850.944C252.893184 850.944 43.008 641.058816 43.008 382.144512c0-258.90816 209.885184-468.799488 468.799488-468.799488 258.90816 0 468.799488 209.891328 468.799488 468.799488C980.609024 641.058816 770.715648 850.944 511.807488 850.944L511.807488 850.944zM511.807488-33.792c-229.71392 0-415.936512 186.222592-415.936512 415.936512 0 229.71392 186.222592 415.936512 415.936512 415.936512S927.744 611.858432 927.744 382.144512C927.744 152.430592 741.521408-33.792 511.807488-33.792L511.807488-33.792zM511.807488-33.792"  horiz-adv-x="1024" />

    
    <glyph glyph-name="iconzhuanqu23" unicode="&#58953;" d="M667.037588 455.915437c-9.864748 9.866011-25.860544 9.866011-35.725292 0l-120.190776-120.190776-118.436342 118.436342c-9.866011 9.866011-25.860544 9.866011-35.725292 0s-9.866011-25.860544 0-35.725292l118.436342-118.436342-118.436342-118.435078c-9.866011-9.866011-9.866011-25.860544 0-35.725292 4.933637-4.933637 11.396879-7.399193 17.862646-7.399193 6.464505 0 12.930272 2.466819 17.862646 7.399193l118.436342 118.435078 120.190776-120.190776c4.932374-4.932374 11.398142-7.399193 17.862646-7.399193s12.930272 2.466819 17.862646 7.399193c9.866011 9.866011 9.866011 25.860544 0 35.725292l-120.190776 120.190776 120.190776 120.190776C676.903599 430.056156 676.903599 446.050689 667.037588 455.915437zM776.697967 564.710598c-70.707887 70.704097-164.712241 109.641432-264.697335 109.641432-99.992673 0-193.999553-38.938598-264.704914-109.642695-70.706623-70.70536-109.647748-164.714767-109.647748-264.712492 0-99.988884 38.939861-193.995764 109.647748-264.702388s164.714767-109.647748 264.704914-109.647748c99.983831 0 193.989449 38.939861 264.698598 109.647748 70.710413 70.70915 109.654063 164.71603 109.654063 264.702388C886.35203 399.993305 847.409643 494.002711 776.697967 564.710598zM511.999368-23.828353c-178.559518 0-323.828984 145.268204-323.828984 323.826458 0 178.560781 145.269467 323.830247 323.828984 323.830247s323.828984-145.269467 323.828984-323.830247C835.828353 121.438588 690.558886-23.828353 511.999368-23.828353z"  horiz-adv-x="1024" />

    
    <glyph glyph-name="dianhua1" unicode="&#59049;" d="M512.007163 836.511117c-249.919003 0-452.519304-202.599278-452.519304-452.519304 0-249.89956 202.601324-452.501908 452.519304-452.501908 249.920026 0 452.503954 202.602348 452.503954 452.501908C964.511117 633.91184 761.928213 836.511117 512.007163 836.511117zM512.007163-30.801261c-229.093698 0-414.810471 185.718819-414.810471 414.793074 0 229.095745 185.716772 414.811494 414.810471 414.811494S926.802284 613.087559 926.802284 383.991814C926.802284 154.916535 741.100862-30.801261 512.007163-30.801261zM660.721183 628.520039c-37.047778 18.813484-87.082334 56.625672-116.633371-24.249287-29.579689-80.905658 1.2689-90.430592 39.429011-109.875456 26.729781-13.56597 1.908466-78.784344-27.14115-137.631614-29.090549-58.843176-65.666582-118.02302-92.37999-104.513332-38.20002 19.435655-64.188928 38.797631-110.286826-33.680077-46.091758-72.491011 13.644765-90.51962 50.675146-109.342314 42.705638-21.739117 151.84022 48.886407 230.246965 207.710692C713.028503 475.794659 703.387935 606.783992 660.721183 628.520039z"  horiz-adv-x="1024" />

    
    <glyph glyph-name="buchongiconsvg01" unicode="&#58971;" d="M931.417 181.7l-346.107 535.773c-35.299 51.511-111.315 51.511-146.614 0l-346.107-535.773c-40.413-58.975 1.813-139.103 73.307-139.103h692.215c71.493 0 113.719 80.129 73.306 139.103zM458.15 534.746c0 7.211 5.845 13.055 13.055 13.055h81.595c7.211 0 13.055-5.844 13.055-13.055v-53.964h-0.021l-13.627-180.763c-0.514-6.81-6.188-12.074-13.018-12.074h-54.372c-6.83 0-12.504 5.264-13.018 12.074l-13.627 180.763h-0.021l0 53.964zM512.003 124.764c-34.195 0-61.916 27.721-61.916 61.916s27.721 61.916 61.916 61.916 61.916-27.721 61.916-61.916-27.721-61.916-61.916-61.916z"  horiz-adv-x="1025" />

    
    <glyph glyph-name="tijiao" unicode="&#58997;" d="M898.433097-127.236675 669.054044-127.236675 669.054044-66.934029 868.281774-66.934029 868.281774 834.934029 461.048081 834.934029 461.048081 593.341782C461.048081 576.689855 447.548684 563.190458 430.896757 563.190458 430.320066 563.190458 429.747954 563.210305 429.179277 563.242365 428.6106 563.210305 428.038488 563.190458 427.461796 563.190458L155.718226 563.190458 155.718226-66.934029 363.724189-66.934029 363.724189-127.236675 125.566903-127.236675C108.914594-127.236675 95.41558-113.737279 95.41558-97.085352L95.41558 606.699963C95.41558 614.100013 98.085689 620.872993 102.509155 626.119705 104.538454 629.298952 107.011244 632.34996 109.913786 635.163193L363.910059 881.345312C369.271269 889.69761 378.633446 895.236675 389.295565 895.236675L898.433097 895.236675C915.085024 895.236675 928.58442 881.737661 928.58442 865.085352L928.58442-97.085352C928.58442-113.737279 915.085024-127.236675 898.433097-127.236675ZM400.745434 833.068082 184.518464 623.493105 400.745434 623.493105 400.745434 833.068082ZM254.310763 233.95404 254.188249 281.635113 804.033884 281.662974 804.15678 233.981901 254.310763 233.95404ZM254.188249 478.735457 804.033884 478.763319 804.15678 431.082627 254.310763 431.054384 254.188249 478.735457ZM254.310763 332.422918 254.188249 380.103991 804.033884 380.131852 804.15678 332.450779 254.310763 332.422918ZM512.954156 129.619012 607.264441 35.351472 551.108938 35.351472 551.076878-89.605916 478.220213-89.568513 478.252654 35.351472 418.64387 35.351472 512.954156 129.619012Z"  horiz-adv-x="1024" />

    
    <glyph glyph-name="loufang" unicode="&#58887;" d="M558.976 640l0-64 419.008 0L977.984 640 558.976 640zM558.976-96l150.976 0 0 320 120 0 0-320 148.032 0 0 640L558.976 544 558.976-96zM81.024-96l448 0 0 960-448 0L81.024-96zM465.024 136l-128 0 0 128 128 0L465.024 136zM334.976 776l128 0 0-128-128 0L334.976 776zM334.976 520l128 0 0-128-128 0L334.976 520zM142.976 776l128 0 0-128-128 0L142.976 776zM142.976 520l128 0 0-128-128 0L142.976 520zM142.976 264l128 0 0-128-128 0L142.976 264z"  horiz-adv-x="1024" />

    
    <glyph glyph-name="jujiao" unicode="&#58994;" d="M512 512c-70.592 0-128-57.408-128-128s57.408-128 128-128 128 57.408 128 128S582.592 512 512 512zM512 320c-35.296 0-64 28.704-64 64s28.704 64 64 64 64-28.704 64-64S547.296 320 512 320zM928 416l-0.928 0C911.424 620.2239999999999 748.224 783.424 544 799.072L544 800c0 17.664-14.336 32-32 32s-32-14.336-32-32l0-0.928C275.776 783.424 112.576 620.2239999999999 96.928 416L96 416c-17.664 0-32-14.336-32-32s14.336-32 32-32l0.928 0C112.576 147.77599999999995 275.776-15.423999999999978 480-31.072000000000003L480-32c0-17.696 14.336-32 32-32s32 14.304 32 32l0 0.928C748.224-15.423999999999978 911.424 147.77599999999995 927.072 352L928 352c17.696 0 32 14.336 32 32S945.696 416 928 416zM544 32.928L544 96c0 17.696-14.336 32-32 32s-32-14.304-32-32l0-63.072C311.04 48.224000000000046 176.224 183.072 160.928 352L224 352c17.664 0 32 14.336 32 32s-14.336 32-32 32l-63.072 0C176.224 584.96 311.04 719.7760000000001 480 735.072L480 672c0-17.664 14.336-32 32-32s32 14.336 32 32l0 63.072C712.928 719.7760000000001 847.776 584.96 863.072 416L800 416c-17.696 0-32-14.336-32-32s14.304-32 32-32l63.072 0C847.776 183.072 712.928 48.224000000000046 544 32.928z"  horiz-adv-x="1024" />

    
    <glyph glyph-name="loucengfenbu" unicode="&#58936;" d="M-20.41451 898.046567l0 0 0-14.325972 0 0 0 14.325972ZM513.330269 272.922554c-7.776956 0-15.144599 2.660538-21.079644 7.572299L44.973319 513.701209 43.02908 515.645448c-6.242031 6.242031-9.721195 14.632957-9.721195 23.535525 0 8.902568 3.479165 17.293495 9.721195 23.535525l2.046567 2.046567 445.947037 228.089937c12.177076 10.02818 29.879884 10.02818 42.05696 0l445.947037-228.089937 2.046567-2.046567c6.242031-6.242031 9.721195-14.632957 9.721195-23.535525 0-8.902568-3.479165-17.293495-9.721195-23.535525l-1.944239-1.944239L534.409913 280.494854C528.474868 275.68542 521.107225 272.922554 513.330269 272.922554zM73.625262 539.078645 513.125612 309.965424l0.102328-0.102328 0.102328 0.102328 2.455881 1.22794 434.588588 227.88528-438.170081 224.099131-0.204657 0.204657-0.204657-0.204657L73.625262 539.078645zM513.330269 127.002298c-7.572299 0-15.04227 2.558209-21.181973 7.572299L44.87099 372.897372l-1.841911 1.841911c-12.995703 12.995703-12.995703 34.075347 0 47.07105l1.534926 1.534926 107.649445 65.080843 18.521435-30.596183-97.92825-59.248126 440.421305-234.638953 0.102328-0.102328 0.102328 0.102328 438.272409 234.843609L853.469771 463.048666l19.647047 29.982212 106.626162-69.890277 1.330269-1.330269c6.242031-6.242031 9.721195-14.632957 9.721195-23.535525 0-8.902568-3.479165-17.293495-9.721195-23.535525l-1.841911-1.841911-2.353553-1.22794L534.512241 134.574598C528.372539 129.560508 520.80024 127.002298 513.330269 127.002298zM512-21.578495c-7.572299 0-15.144599 2.558209-21.284301 7.674628L44.768662 230.865594l-1.841911 1.841911c-6.242031 6.242031-9.721195 14.632957-9.721195 23.535525s3.479165 17.293495 9.721195 23.535525l1.22794 1.22794 102.021385 67.843709 19.851704-29.777556-93.835115-62.317977L512 15.259718l0 0 0 0 2.251224 1.22794L951.705006 256.550015 850.39992 322.858799l19.647047 29.982212 109.696013-71.834516 1.330269-1.330269c6.242031-6.242031 9.721195-14.632957 9.721195-23.535525 0-8.902568-3.479165-17.293495-9.721195-23.535525l-1.841911-1.841911-2.251224-1.22794L533.284301-13.903867C527.144599-19.020286 519.572299-21.578495 512-21.578495z"  horiz-adv-x="1024" />

    
    <glyph glyph-name="yuancircle46" unicode="&#59229;" d="M229.76512 101.76512c155.61728-155.61728 408.84224-155.61728 564.45952 0s155.61728 408.84224 0 564.45952-408.84224 155.61728-564.45952 0S74.14784 257.39264 229.76512 101.76512zM260.73088 635.27936c138.55744 138.55744 364.00128 138.55744 502.55872 0 138.53696-138.5472 138.53696-364.00128 0-502.55872-138.55744-138.5472-364.02176-138.5472-502.55872 0C122.17344 271.27808 122.17344 496.73216 260.73088 635.27936z"  horiz-adv-x="1024" />

    
    <glyph glyph-name="banli3" unicode="&#59621;" d="M976.798476 492.568381l-54.51581-54.51581-152.015238 151.966476 54.564571 54.588952c17.16419 17.16419 43.056762 19.309714 57.636571 4.754286l99.08419-99.157333C996.181333 535.600762 994.03581 509.805714 976.798476 492.568381L976.798476 492.568381 976.798476 492.568381zM744.935619 563.858286l151.966476-151.625143L534.406095 49.980952c-1.633524-1.657905-6.241524-6.144-12.726857-7.826286-0.78019-0.341333-1.487238-0.585143-2.267429-0.804571l-189.17181-60.269714c-5.315048-1.682286-10.678857-0.633905-14.116571 2.852571-3.437714 3.462095-4.534857 8.752762-2.852571 14.06781l60.269714 189.19619c0.292571 0.731429 0.560762 1.536 0.950857 2.243048 1.633524 6.509714 6.217143 13.287619 7.92381 14.994286l69.38819 64.024381L221.720381 268.458667c-9.289143 0-18.090667 10.752-18.090667 20.041143 0 9.240381 8.801524 21.284571 18.090667 21.284571l266.166857 0L744.935619 563.858286 744.935619 563.858286zM487.643429 61.878857l-93.574095 93.574095-25.088-78.799238 39.936-39.887238L487.643429 61.878857 487.643429 61.878857zM739.05981 504.271238c-5.36381 5.412571-14.116571 5.412571-19.480381 0l-282.599619-282.575238c-5.412571-5.36381-5.412571-14.116571 0-19.480381 5.36381-5.36381 14.116571-5.36381 19.456 0l282.599619 282.575238C744.423619 490.154667 744.423619 498.907429 739.05981 504.271238L739.05981 504.271238 739.05981 504.271238zM107.812571-47.250286c-10.069333 0-18.748952 3.462095-18.748952 13.58019L89.063619 735.768381C87.79581 753.785905 100.400762 750.738286 112.835048 750.738286l66.462476 0 0-25.673143c0-10.118095 11.166476-18.310095 21.308952-18.310095 10.142476 0 21.284571 8.192 21.284571 18.310095L221.891048 750.738286l97.718857 0 0-25.673143c0-10.118095 11.142095-18.310095 21.333333-18.310095 10.118095 0 21.26019 8.192 21.26019 18.310095L362.203429 750.738286l90.185143 0 0-25.673143c0-10.118095 11.166476-18.310095 21.333333-18.310095 10.142476 0 21.26019 8.192 21.26019 18.310095L494.982095 750.738286l90.209524 0 0-25.673143c0-10.118095 11.166476-18.310095 21.284571-18.310095 10.093714 0 21.284571 8.192 21.284571 18.310095L627.760762 750.738286l75.995429 0c10.044952 0 15.457524-4.900571 15.457524-14.969905l0-126.927238 55.125333 54.954667L774.339048 735.768381c0 40.374857-30.232381 70.070857-70.582857 70.070857l-75.995429 0L627.760762 853.308952C627.760762 863.427048 616.569905 871.619048 606.47619 871.619048c-10.118095 0-21.284571-8.192-21.284571-18.310095l0-47.469714-90.209524 0L494.982095 853.308952C494.982095 863.427048 483.815619 871.619048 473.673143 871.619048s-21.308952-8.192-21.308952-18.310095l0-47.469714-90.209524 0L362.154667 853.308952C362.179048 863.427048 350.98819 871.619048 340.894476 871.619048c-10.118095 0-21.308952-8.192-21.308952-18.310095l0-47.469714L221.891048 805.839238 221.891048 853.308952C221.891048 863.427048 210.70019 871.619048 200.582095 871.619048 190.464 871.619048 179.297524 863.427048 179.297524 853.308952l0-47.469714L112.835048 805.839238C59.440762 805.985524 32.719238 776.143238 32.719238 735.768381l0-769.438476C32.719238-74.069333 68.656762-103.619048 109.080381-103.619048l594.627048 0c40.399238 0 70.656 29.549714 70.656 69.948952L774.363429 233.081905 719.238095 178.102857l0-211.772952c0-10.118095-5.436952-13.58019-15.530667-13.58019M578.876952 596.650667l-358.4 0c-9.289143 0-16.847238-11.995429-16.847238-21.308952s7.558095-21.308952 16.847238-21.308952l358.4 0c9.313524 0 16.774095 11.995429 16.774095 21.308952C595.675429 584.630857 588.190476 596.650667 578.876952 596.650667L578.876952 596.650667zM578.876952 456.362667l-358.4 0c-9.289143 0-16.847238-11.995429-16.847238-21.308952 0-9.289143 7.558095-21.284571 16.847238-21.284571l358.4 0c9.313524 0 16.774095 11.995429 16.774095 21.284571C595.675429 444.367238 588.190476 456.362667 578.876952 456.362667z"  horiz-adv-x="1024" />

    
    <glyph glyph-name="14-copy" unicode="&#58892;" d="M889.728 177.856v-171.648h-755.392v171.648h-68.736v-171.648c0 0 5.696-68.608 68.672-68.608h755.456c62.912 0 68.608 68.608 68.608 68.608v171.648l-68.608 0zM855.296 452.672h-171.648v308.992c0 37.888-30.72 68.672-68.672 68.672h-206.016c-37.888 0-68.672-30.784-68.672-68.672v-308.992l-171.712 0 343.424-343.36 343.296 343.36z"  horiz-adv-x="1024" />

    
    <glyph glyph-name="loudong01" unicode="&#58894;" d="M739.383 16.132 739.383 784.625 226.712 784.625l0-768.493-94.145 0 0-32.75 698.576 0 0 32.57M708.688 16.132 260.479 16.132 260.479 751.878l448.209 0L708.688 16.132zM739.383 16.132M451.839 622.943 323.924 622.943l0-63.445 127.915 0L451.839 622.943zM451.839 431.584 323.924 431.584l0-64.462 127.915 0L451.839 431.584zM451.839 271.952 323.924 271.952l0-63.44 127.915 0L451.839 271.952zM644.218 271.952l-127.91 0 0-63.44 127.91 0L644.218 271.952zM644.218 431.584l-127.91 0 0-64.462 127.91 0L644.218 431.584zM644.218 622.943l-127.91 0 0-63.445 127.91 0L644.218 622.943z"  horiz-adv-x="1024" />

    
    <glyph glyph-name="wancheng" unicode="&#59109;" d="M380.8 146.56 137.6 390.4c-12.8 12.8-12.8 33.92 0 46.72 12.8 12.8 33.92 12.8 46.72 0l227.2-227.84 425.6 421.12c12.8 12.8 33.28 12.8 46.08 0 12.8-12.8 12.8-33.28 0-45.44L441.6 146.56C420.48 126.08 396.8 130.56 380.8 146.56z"  horiz-adv-x="1024" />

    
    <glyph glyph-name="duorenyonghu" unicode="&#59356;" d="M523.52 297.6C593.28 343.68 640 422.4 640 512c0 141.44-114.56 256-256 256C242.56 768 128 653.44 128 512c0-89.6 46.72-168.32 116.48-214.4C101.76 250.88 0 130.56 0-32 0-49.92 14.08-64 32-64S64-49.92 64-32C64 144.64 207.36 256 384 256c176.64 0 320-111.36 320-288 0-17.92 14.08-32 32-32 17.92 0 32 14.08 32 32C768 130.56 666.24 250.88 523.52 297.6zM384 320C278.4 320 192 406.4 192 512s86.4 192 192 192c105.6 0 192-86.4 192-192S489.6 320 384 320zM804.48 293.76C878.08 339.2 928 419.2 928 512c0 141.44-114.56 256-256 256C654.08 768 640 753.92 640 736 640 718.08 654.08 704 672 704c105.6 0 192-86.4 192-192 0-71.04-38.4-132.48-96-165.76-56.32-34.56-71.68-83.2 0-109.44 111.36-39.68 192-144 192-269.44 0-17.92 14.08-32 32-32 17.92 0 32 14.08 32 32C1024 115.2 933.12 241.28 804.48 293.76z"  horiz-adv-x="1024" />

    
    <glyph glyph-name="zhiyuanfanhui16" unicode="&#58915;" d="M938.619904 841.460736 369.472512 841.460736c-17.78688 0-32.228352-14.403584-32.228352-32.192512l0-260.953088 64.402432 0L401.646592 777.076736l413.12768 0-166.329344-94.32064c-10.07616-5.726208-16.320512-16.408576-16.320512-28.005376l0-498.33984L401.645568 156.41088 401.645568 333.778944l-64.401408 0 0-209.558528c0-17.78688 14.441472-32.192512 32.228352-32.192512L632.12544 92.027904l0-122.3168c0-11.460608 6.083584-22.053888 15.997952-27.815936 5.010432-2.9184 10.594304-4.375552 16.192512-4.375552 5.513216 0 10.950656 1.38752 15.89248 4.18816l267.80672 151.877632c13.16864 4.052992 22.797312 16.149504 22.797312 30.636032L970.812416 809.268224C970.812416 827.056128 956.406784 841.460736 938.619904 841.460736zM442.500096 395.874304c24.891392 0 45.058048 20.175872 45.058048 45.075456 0 24.87296-20.166656 45.058048-45.058048 45.058048L270.229504 486.007808l0 84.01408c0 7.281664-4.098048 13.92128-10.559488 17.221632-6.477824 3.283968-14.226432 2.69312-20.094976-1.59232L61.81376 456.569856c-4.992-3.648512-7.980032-9.448448-7.980032-15.62112 0-6.191104 2.988032-12.024832 7.980032-15.657984l177.728512-129.107968c3.362816-2.443264 7.335936-3.6864 11.343872-3.6864 3.008512 0 6.012928 0.679936 8.78592 2.093056 6.46144 3.3024 10.559488 9.950208 10.559488 17.232896l0 84.04992L442.500096 395.874304 442.500096 395.874304z"  horiz-adv-x="1024" />

    
    <glyph glyph-name="txt" unicode="&#58952;" d="M951.273 600.954l-286.432 284.282c-6.4 6.4-17.099 10.699-27.798 10.699h-468.146c-29.923 0-57.696-12.799-74.795-29.898-19.249-19.299-32.073-44.897-32.073-74.895v-814.449c0-29.898 12.824-57.696 32.073-72.695 19.224-19.199 44.872-31.998 74.795-31.998h686.182c29.948 0 55.597 10.699 74.845 29.898 21.349 19.199 32.048 46.997 32.048 74.795v596.463c0 8.499-2.15 19.199-10.699 27.798zM658.441 776.243l181.689-181.689v-2.2h-138.941c-10.699 0-21.399 4.3-29.948 12.799l-2.15 2.2c-6.4 8.499-10.649 19.199-10.649 29.898v138.991zM887.389-28.244v0c0-8.599-4.3-15.074-8.662-19.424-4.3-4.35-12.949-8.699-19.474-8.699h-694.532c-8.649 0-15.137 4.35-19.461 8.699-6.5 4.35-8.649 12.949-8.649 19.424v824.348c0 6.487 2.15 13.062 8.649 17.311 4.325 6.575 10.799 8.699 19.461 8.699h447.885v-181.776c0-23.786 10.824-45.447 25.961-62.746v-2.125c17.311-15.187 38.96-26.011 64.921-26.011h183.901l0-577.701zM344.585 363.832c-1.037 0-2.050-0.087-3.050-0.225l-130.379-0c-1 0.137-2.012 0.225-3.050 0.225-12.674 0-22.949-10.274-22.949-22.949 0-12.674 10.274-22.949 22.949-22.949 0.95 0 1.875 0.075 2.8 0.187h37.335v-164.94c-0.025-0.5-0.075-1-0.075-1.5 0-14.874 12.062-26.923 26.923-26.923 14.874 0 26.923 12.062 26.923 26.923 0 0.075-0.012 0.15-0.012 0.225h0.012l-0 166.202h39.773c0.925-0.112 1.85-0.187 2.8-0.187 12.674 0 22.949 10.274 22.949 22.949-0 12.674-10.274 22.961-22.949 22.961zM760.659 363.832c-1.037 0-2.050-0.087-3.050-0.225l-130.379-0c-1 0.137-2.012 0.225-3.050 0.225-12.674 0-22.949-10.274-22.949-22.949 0-12.674 10.274-22.949 22.949-22.949 0.95 0 1.875 0.075 2.8 0.187h37.335v-164.94c-0.025-0.5-0.075-1-0.075-1.5 0-14.874 12.062-26.923 26.923-26.923 14.874 0 26.923 12.062 26.923 26.923 0 0.075-0.012 0.15-0.012 0.225h0.012v166.202h39.773c0.925-0.112 1.85-0.187 2.8-0.187 12.674 0 22.949 10.274 22.949 22.949-0 12.674-10.274 22.961-22.949 22.961zM505.75 247.114l53.684 75.008c0.45 0.575 0.862 1.162 1.262 1.775 0.3 0.412 0.55 0.825 0.762 1.25 1.8 3.25 2.825 6.975 2.825 10.962 0 12.524-10.149 22.674-22.674 22.674-8.049 0-15.112-4.212-19.136-10.549l-44.96-62.971-46.272 62.546c-0.112 0.15-0.25 0.287-0.362 0.437-4.025 6.325-11.074 10.537-19.124 10.537-12.524 0-22.674-10.149-22.674-22.674 0-6.212 2.5-11.837 6.55-15.937l54.347-73.483-54.559-76.42c-1.512-1.575-2.8-3.375-3.812-5.337-0.687-1.025-1.15-2.075-1.325-3.125-0.762-2.275-1.2-4.712-1.2-7.25 0-12.524 10.149-22.674 22.674-22.674 8.299 0 15.537 4.475 19.486 11.124l46.935 65.571 46.747-63.196c3.875-6.962 11.287-11.674 19.824-11.674 12.524 0 22.674 10.149 22.674 22.674 0 5.55-2 10.624-5.312 14.574l-56.359 76.158z"  horiz-adv-x="1024" />

    
    <glyph glyph-name="prohibit" unicode="&#58988;" d="M508.690628 766.88741c-211.70568 0-383.312082-171.57468-383.312082-383.312082 0-211.659631 171.607426-383.266034 383.312082-383.266034 211.672934 0 383.29571 171.607426 383.29571 383.266034C891.987361 595.31273 720.363562 766.88741 508.690628 766.88741zM333.479117 142.29302900000005l-66.052368 66.148559 416.44469 416.381246 66.086138-66.10251L333.479117 142.29302900000005z"  horiz-adv-x="1024" />

    
    <glyph glyph-name="kaiguan3" unicode="&#59098;" d="M764.867148 646.206864 259.0735 646.206864c-143.070486 0-259.052011-115.984594-259.052011-259.052011 0-143.07151 115.982548-259.050987 259.052011-259.050987l505.793648 0c143.067416 0 259.050987 115.979478 259.050987 259.050987C1023.917112 530.221246 907.933541 646.206864 764.867148 646.206864zM259.0735 150.483572c-130.501216 0-236.671281 106.172111-236.671281 236.671281 0 130.501216 106.170065 236.671281 236.671281 236.671281S495.744781 517.655046 495.744781 387.15383C495.744781 256.65466 389.574716 150.483572 259.0735 150.483572z"  horiz-adv-x="1024" />

    
    <glyph glyph-name="kaiguan4" unicode="&#59100;" d="M764.904497 644.581854 259.086289 644.581854c-143.076626 0-259.065314-115.989711-259.065314-259.065314 0-143.077649 115.988688-259.063267 259.065314-259.063267l505.818207 0c143.074579 0 259.063267 115.985618 259.063267 259.063267C1023.967764 528.592143 907.980099 644.581854 764.904497 644.581854zM764.904497 148.835026c-130.507356 0-236.682537 106.175181-236.682537 236.682537S634.397141 622.201124 764.904497 622.201124s236.683561-106.176205 236.683561-236.683561S895.411853 148.835026 764.904497 148.835026z"  horiz-adv-x="1024" />

    
    <glyph glyph-name="zonghechaxun" unicode="&#59050;" d="M908-60l-320 0c-22.4 0-40 17.6-40 40l0 320c0 22.4 17.6 40 40 40l320 0c22.4 0 40-17.6 40-40l0-320C948-42.39999999999998 930.4-60 908-60zM877.6 451.2L780.8 548.8c-23.2-15.2-50.4-24.8-80.8-24.8-79.2 0-144 64.8-144 144s64.8 144 144 144 144-64.8 144-144c0-23.2-5.6-45.6-16-65.6l100.8-100.8c14.4-14.4 14.4-36.8 0-51.2C914.4 436.8 892 436.8 877.6 451.2zM700 740c-40 0-72-32-72-72s32-72 72-72 72 32 72 72S740 740 700 740zM428-60l-320 0c-22.4 0-40 17.6-40 40l0 320c0 22.4 17.6 40 40 40l320 0c22.4 0 40-17.6 40-40l0-320C468-42.39999999999998 450.4-60 428-60zM428 420l-320 0c-22.4 0-40 17.6-40 40l0 320c0 22.4 17.6 40 40 40l320 0c22.4 0 40-17.6 40-40l0-320C468 437.6 450.4 420 428 420z"  horiz-adv-x="1024" />

    
    <glyph glyph-name="z-location" unicode="&#59007;" d="M511.999 622.996c43.46 0 84.318-16.924 115.050-47.654 30.731-30.731 47.655-71.591 47.655-115.050 0-43.46-16.924-84.318-47.656-115.049-30.73-30.73-71.589-47.654-115.050-47.654-43.46 0-84.318 16.924-115.049 47.654s-47.654 71.589-47.654 115.049c0 43.461 16.924 84.319 47.653 115.050 30.733 30.73 71.593 47.654 115.051 47.654M511.999 659.835c-51.068 0-102.136-19.483-141.1-58.444-77.926-77.928-77.926-204.272 0-282.198 38.964-38.963 90.030-58.444 141.099-58.444 51.069 0 102.136 19.481 141.1 58.444 77.929 77.927 77.929 204.271 0 282.198-38.963 38.962-90.029 58.444-141.099 58.444v0zM511.999 815.835c1.678 0 3.532-0.015 5.819-0.048 0.456-0.006 0.916-0.016 1.373-0.026l0.26-0.005c1.472-0.030 2.943-0.068 4.411-0.116l0.028-0.001h0.029l0.573-0.017c0.29-0.008 0.58-0.017 0.902-0.029 2.025-0.072 3.894-0.152 5.725-0.248l0.148-0.009c0.241-0.014 0.484-0.029 0.728-0.042 1.608-0.087 3.259-0.188 4.908-0.299l0.026-0.002 0.027-0.001c0.498-0.033 0.997-0.069 1.494-0.105l0.029-0.002 0.030-0.002c1.557-0.111 3.12-0.232 4.645-0.361 0.278-0.024 0.559-0.046 0.837-0.069l0.266-0.021c1.872-0.164 3.803-0.348 5.739-0.55l0.067-0.007 0.067-0.006 0.489-0.052 0.473-0.052c1.474-0.156 3.024-0.331 4.699-0.53l0.404-0.048c0.315-0.038 0.63-0.075 0.946-0.115l0.034-0.004 0.035-0.004c1.985-0.245 3.797-0.48 5.538-0.721l0.214-0.029c1.783-0.249 3.641-0.525 5.721-0.848 0.299-0.046 0.596-0.094 0.891-0.142l0.073-0.011 0.073-0.012c1.556-0.246 3.14-0.508 4.842-0.8v0l0.84-0.146 0.098-0.018 0.099-0.017c3.734-0.654 7.567-1.389 11.388-2.186l0.997-0.211c1.809-0.383 3.458-0.744 5.041-1.103l0.086-0.018 0.566-0.126c1.893-0.432 3.788-0.88 5.636-1.334l0.121-0.031 0.163-0.041c1.617-0.397 3.379-0.846 5.386-1.371l0.936-0.249c2.090-0.556 3.803-1.023 5.385-1.469 0.073-0.020 0.146-0.041 0.219-0.061 37.81-10.682 73.498-27.375 106.080-49.617 32.151-21.947 60.483-48.74 84.211-79.637 23.965-31.207 42.605-65.796 55.403-102.807 13.237-38.286 19.949-78.451 19.949-119.379 0-57.919-9.5-101.079-31.769-144.318-23.298-45.238-61.226-91.005-111-145.697l-220.977-208.123c-0.315-0.315-0.529-0.365-0.556-0.372l-0.887 0.020-0.821-0.020c-0.059 0.012-0.269 0.071-0.57 0.372l-0.391 0.391-220.581 207.732c-49.775 54.692-87.706 100.459-111.002 145.698-22.268 43.239-31.769 86.4-31.769 144.318 0 45.837 8.375 90.517 24.891 132.798 15.933 40.788 38.91 78.085 68.292 110.858 0.057 0.063 0.115 0.128 0.173 0.192 1 1.113 2.005 2.219 3.018 3.32 0.054 0.059 0.108 0.118 0.163 0.177 0.925 1.003 1.854 2.002 2.791 2.995l0.722 0.722 0.323 0.383c10.336 10.881 21.437 21.215 33.015 30.737l0.341 0.255 0.605 0.519c1.046 0.854 2.097 1.704 3.154 2.547 0.125 0.098 0.25 0.197 0.375 0.299 1.112 0.886 2.231 1.766 3.354 2.64l0.070 0.053 0.069 0.054-0.014-0.011 0.17 0.131c1.099 0.853 2.202 1.7 3.311 2.54 0.157 0.118 0.312 0.234 0.467 0.352 1.125 0.85 2.255 1.694 3.39 2.531l0.102 0.076 0.101 0.076 0.061 0.045c1.184 0.87 2.373 1.736 3.567 2.592l0.079 0.056 0.079 0.057 0.001 0.001 0.044 0.032c1.241 0.889 2.489 1.772 3.743 2.646l1.146 0.799c8.602 5.954 17.551 11.595 26.616 16.778l0.044 0.025 0.306 0.172 0.051 0.030c1.198 0.684 2.402 1.361 3.608 2.030l0.148 0.081 0.51 0.281c1.129 0.623 2.259 1.24 3.395 1.852l0.060 0.032c0.275 0.147 0.551 0.294 0.826 0.442 1.082 0.579 2.167 1.152 3.256 1.722v0l0.85 0.441c1.089 0.565 2.183 1.125 3.278 1.68l0.921 0.464c1.077 0.541 2.155 1.077 3.247 1.611l0.255 0.126 0.676 0.331c1.090 0.53 2.184 1.054 3.296 1.581l0.796 0.378 0.060 0.028 0.060 0.029c1.134 0.534 2.272 1.060 3.423 1.588l0.857 0.394c1.186 0.539 2.375 1.071 3.567 1.598v0l0.553 0.245 0.058 0.025c1.365 0.601 2.733 1.192 4.066 1.76l0.212 0.091c4.271 1.813 8.662 3.579 13.053 5.245 0.040 0.015 0.080 0.030 0.121 0.045l0.065 0.025 0.067 0.025c1.4 0.531 2.815 1.057 4.206 1.563l0.055 0.020 0.071 0.026 0.207 0.074 0.509 0.182c1.186 0.428 2.372 0.852 3.562 1.269l0.039 0.013 0.039 0.014c0.19 0.067 0.382 0.132 0.573 0.197l0.508 0.174c1.065 0.368 2.131 0.736 3.243 1.108 0.414 0.139 0.83 0.276 1.245 0.411l0.166 0.055c0.984 0.327 1.971 0.651 2.959 0.97l1.5 0.477c0.992 0.312 1.983 0.623 3.019 0.941 0.515 0.159 1.029 0.314 1.532 0.467 0.97 0.293 1.943 0.583 2.898 0.864 0.551 0.162 1.101 0.321 1.668 0.485 0.949 0.274 1.9 0.541 2.852 0.808 0.55 0.153 1.1 0.306 1.65 0.456 0.96 0.263 1.925 0.523 2.889 0.778l0.092 0.025c0.531 0.142 1.063 0.283 1.56 0.412 0.981 0.255 1.966 0.503 2.949 0.75l0.152 0.039c0.488 0.124 0.974 0.248 1.466 0.367 1.023 0.252 2.049 0.496 3.125 0.751l0.485 0.116c0.326 0.078 0.653 0.157 1.007 0.238 0.95 0.221 1.903 0.434 2.857 0.647l0.416 0.093 0.635 0.15 0.662 0.148c1.276 0.278 2.556 0.55 3.837 0.815l0.045 0.009 0.045 0.010 0.639 0.135 0.032 0.006 0.031 0.006c3.129 0.642 6.28 1.245 9.411 1.801l0.475 0.083 0.791 0.136c1.112 0.193 2.227 0.387 3.343 0.57l0.080 0.012c0.301 0.050 0.603 0.097 0.906 0.145l1.019 0.162c0.908 0.143 1.815 0.288 2.722 0.425 0.475 0.072 0.952 0.141 1.429 0.21l0.399 0.057c0.959 0.139 1.918 0.279 2.877 0.411 0.537 0.074 1.075 0.144 1.615 0.215l0.369 0.048c0.908 0.121 1.814 0.24 2.724 0.353 0.567 0.070 1.135 0.138 1.704 0.207l0.376 0.045c0.908 0.108 1.815 0.213 2.724 0.315 0.529 0.059 1.058 0.115 1.588 0.171l0.465 0.049c0.899 0.095 1.8 0.187 2.702 0.276 0.709 0.070 1.418 0.137 2.091 0.199 0.909 0.084 1.819 0.164 2.731 0.241v0l0.413 0.034c0.563 0.047 1.125 0.094 1.695 0.139 0.908 0.072 1.815 0.137 2.674 0.2l0.501 0.036c0.554 0.040 1.107 0.079 1.617 0.113 0.742 0.048 1.484 0.092 2.227 0.136l0.595 0.036c0.703 0.042 1.407 0.084 2.111 0.122 0.919 0.048 1.84 0.089 2.785 0.132l0.462 0.021c0.527 0.024 1.055 0.048 1.539 0.068 0.972 0.038 1.948 0.069 2.922 0.098l0.074 0.002 0.71 0.024c0.372 0.013 0.746 0.026 1.119 0.036l0.081 0.002c1.084 0.029 2.167 0.048 3.288 0.067l0.77 0.015c0.267 0.005 0.533 0.011 0.814 0.015 1.645 0.025 3.293 0.036 4.895 0.036M511.999 852.674c-1.8 0-3.596-0.012-5.391-0.037-0.584-0.007-1.169-0.023-1.752-0.033-1.206-0.020-2.409-0.042-3.612-0.074-0.709-0.017-1.417-0.045-2.126-0.068-1.078-0.033-2.157-0.068-3.233-0.109-0.748-0.030-1.495-0.065-2.241-0.099-1.035-0.046-2.068-0.093-3.102-0.147-0.766-0.042-1.533-0.086-2.299-0.132-1.010-0.060-2.019-0.119-3.027-0.184-0.777-0.051-1.552-0.107-2.328-0.163-0.992-0.072-1.984-0.143-2.977-0.222-0.782-0.061-1.563-0.128-2.344-0.192-0.986-0.085-1.973-0.171-2.956-0.261-0.776-0.072-1.55-0.145-2.324-0.221-0.99-0.097-1.978-0.199-2.965-0.302-0.764-0.082-1.529-0.162-2.291-0.247-0.997-0.112-1.992-0.226-2.989-0.345-0.75-0.090-1.501-0.179-2.25-0.272-1.015-0.126-2.027-0.259-3.040-0.394-0.72-0.095-1.442-0.189-2.161-0.288-1.054-0.145-2.104-0.299-3.155-0.451-0.679-0.098-1.36-0.195-2.036-0.299-1.111-0.169-2.223-0.345-3.333-0.521-0.611-0.098-1.222-0.192-1.833-0.294-1.263-0.207-2.523-0.426-3.782-0.644-0.451-0.080-0.907-0.155-1.358-0.235-3.459-0.614-6.903-1.275-10.329-1.978-0.29-0.059-0.578-0.123-0.868-0.183-1.407-0.292-2.814-0.589-4.216-0.895-0.494-0.108-0.987-0.222-1.482-0.333-1.197-0.268-2.397-0.534-3.59-0.813-0.562-0.13-1.123-0.266-1.684-0.4-1.124-0.266-2.245-0.534-3.365-0.809-0.597-0.146-1.191-0.298-1.787-0.448-1.083-0.271-2.164-0.545-3.245-0.826-0.607-0.158-1.213-0.319-1.816-0.48-1.067-0.282-2.135-0.57-3.198-0.861-0.608-0.167-1.216-0.335-1.824-0.504-1.057-0.297-2.114-0.595-3.169-0.898-0.604-0.174-1.205-0.349-1.806-0.525-1.066-0.313-2.132-0.63-3.194-0.952-0.578-0.175-1.155-0.35-1.732-0.528-1.090-0.335-2.177-0.675-3.264-1.018-0.547-0.174-1.095-0.347-1.641-0.522-1.125-0.362-2.244-0.729-3.365-1.102-0.502-0.165-1.005-0.331-1.506-0.498-1.186-0.397-2.366-0.803-3.545-1.212-0.433-0.149-0.867-0.297-1.299-0.448-1.298-0.454-2.59-0.917-3.881-1.382-0.309-0.113-0.619-0.221-0.929-0.335-1.568-0.57-3.13-1.151-4.688-1.742-0.030-0.011-0.058-0.021-0.087-0.032-4.905-1.86-9.764-3.811-14.575-5.854-0.067-0.029-0.133-0.058-0.201-0.086-1.502-0.641-3-1.287-4.494-1.945-0.222-0.097-0.443-0.197-0.664-0.295-1.337-0.591-2.672-1.189-4.001-1.794-0.299-0.137-0.599-0.276-0.899-0.413-1.25-0.574-2.497-1.151-3.74-1.736-0.34-0.159-0.676-0.32-1.016-0.481-1.206-0.572-2.412-1.15-3.613-1.733-0.349-0.17-0.695-0.341-1.043-0.511-1.196-0.586-2.387-1.177-3.576-1.774-0.339-0.171-0.676-0.341-1.014-0.511-1.199-0.609-2.397-1.222-3.589-1.84-0.319-0.167-0.639-0.333-0.957-0.497-1.222-0.639-2.441-1.282-3.654-1.933-0.28-0.151-0.563-0.302-0.844-0.451-1.268-0.684-2.533-1.373-3.793-2.069-0.22-0.123-0.441-0.244-0.662-0.365-1.349-0.748-2.694-1.505-4.035-2.27-0.128-0.072-0.255-0.143-0.383-0.215-10.497-6-20.699-12.46-30.576-19.351-0.006-0.004-0.012-0.008-0.018-0.015-1.386-0.966-2.765-1.941-4.136-2.925-0.077-0.054-0.15-0.108-0.226-0.163-1.308-0.938-2.61-1.886-3.906-2.838-0.108-0.080-0.215-0.159-0.322-0.239-1.27-0.937-2.536-1.881-3.793-2.833-0.113-0.086-0.226-0.171-0.341-0.257-1.259-0.954-2.511-1.914-3.758-2.882-0.103-0.079-0.207-0.159-0.308-0.238-1.271-0.989-2.536-1.983-3.793-2.986-0.070-0.056-0.139-0.112-0.209-0.167-1.313-1.047-2.619-2.103-3.917-3.166-0.010-0.008-0.021-0.016-0.031-0.024-13.324-10.91-25.935-22.66-37.752-35.168-0.002-0.003-0.005-0.006-0.008-0.009-1.169-1.237-2.327-2.48-3.479-3.731-0.027-0.030-0.053-0.059-0.081-0.087-1.136-1.235-2.264-2.475-3.386-3.724-0.015-0.018-0.031-0.034-0.045-0.049-63.877-71.17-102.74-165.251-102.74-268.411 0-128.127 44.51-196.411 153.322-315.864l221.21-208.325c7.426-7.426 17.091-11.163 26.608-11.163 0.287 0 0.572 0.004 0.859 0.011 0.287-0.007 0.573-0.011 0.859-0.011 9.518 0 19.182 3.737 26.608 11.163l221.211 208.325c108.812 119.454 153.321 187.737 153.321 315.864 0 184.088-123.738 339.269-292.574 386.922-0.019 0.005-0.037 0.010-0.055 0.015-1.988 0.562-3.986 1.103-5.986 1.635-0.338 0.090-0.676 0.179-1.015 0.269-1.987 0.521-3.98 1.031-5.976 1.523-0.045 0.011-0.089 0.024-0.133 0.034-2.124 0.522-4.255 1.026-6.393 1.513-0.231 0.052-0.462 0.103-0.691 0.155-1.852 0.421-3.707 0.825-5.565 1.218-0.365 0.078-0.733 0.156-1.099 0.233-4.164 0.868-8.352 1.674-12.565 2.411-0.382 0.069-0.77 0.133-1.152 0.201-1.769 0.304-3.541 0.598-5.318 0.879-0.391 0.063-0.783 0.127-1.176 0.187-2.124 0.331-4.253 0.648-6.39 0.946-0.038 0.006-0.076 0.010-0.114 0.015-2.025 0.28-4.056 0.543-6.090 0.793-0.508 0.063-1.017 0.124-1.525 0.184-1.739 0.207-3.479 0.405-5.224 0.589-0.39 0.042-0.782 0.086-1.172 0.126-2.101 0.217-4.206 0.42-6.316 0.604-0.381 0.033-0.761 0.060-1.141 0.093-1.731 0.146-3.467 0.281-5.206 0.405-0.584 0.043-1.169 0.084-1.754 0.123-1.807 0.122-3.616 0.232-5.432 0.331-0.312 0.015-0.619 0.037-0.929 0.052-2.097 0.108-4.2 0.197-6.306 0.273-0.544 0.020-1.093 0.035-1.64 0.051-1.625 0.053-3.253 0.095-4.881 0.128-0.605 0.012-1.212 0.026-1.815 0.035-2.122 0.027-4.244 0.049-6.369 0.049v0z"  horiz-adv-x="1024" />

    
    <glyph glyph-name="xuanze" unicode="&#58996;" d="M863.576287 687.066457 426.318572 222.470093 128.084167 431.219441 64.132646 399.253402 447.865307 47.505199 959.52557 687.066457Z"  horiz-adv-x="1024" />

    
    <glyph glyph-name="xiaoqu" unicode="&#58900;" d="M667.533844 545.79392l119.671567 0c9.343809 0 16.764825 7.487531 16.764825 16.697287L803.970236 682.222125c0 9.216919-7.421017 16.70445-16.764825 16.70445L667.533844 698.926576c-9.214872 0-16.697287-7.487531-16.697287-16.70445l0-119.730918C650.835534 553.341826 658.318972 545.79392 667.533844 545.79392M684.238294 665.524838l86.324064 0 0-86.331227-86.324064 0L684.238294 665.524838zM229.432924 545.79392l119.67259 0c9.276271 0 16.764825 7.487531 16.764825 16.697287L365.87034 682.222125c0 9.216919-7.488555 16.70445-16.764825 16.70445L229.432924 698.926576c-9.214872 0-16.697287-7.487531-16.697287-16.70445l0-119.730918C212.734614 553.341826 220.218052 545.79392 229.432924 545.79392M246.136352 665.524838l86.264713 0 0-86.331227-86.264713 0L246.136352 665.524838zM229.432924 313.051111l119.67259 0c9.276271 0 16.764825 7.483438 16.764825 16.636912L365.87034 449.418942c0 9.277294-7.488555 16.696264-16.764825 16.696264L229.432924 466.115206c-9.214872 0-16.697287-7.41897-16.697287-16.696264l0-119.731942C212.734614 320.532503 220.218052 313.051111 229.432924 313.051111M246.136352 432.716538l86.264713 0 0-86.329181-86.264713 0L246.136352 432.716538zM667.533844 313.051111l119.671567 0c9.343809 0 16.764825 7.483438 16.764825 16.636912L803.970236 449.418942c0 9.277294-7.421017 16.696264-16.764825 16.696264L667.533844 466.115206c-9.214872 0-16.697287-7.41897-16.697287-16.696264l0-119.731942C650.835534 320.532503 658.318972 313.051111 667.533844 313.051111M684.238294 432.716538l86.324064 0 0-86.329181-86.324064 0L684.238294 432.716538zM996.079602-68.28906l-50.745754 0L945.333848 867.233839c0 15.359826-12.480242 27.835975-27.841092 27.835975L106.438683 895.069815c-15.358803 0-27.834952-12.414751-27.834952-27.835975l0-935.522899L27.851836-68.28906c-15.360849 0-27.835975-12.351306-27.835975-27.710109 0-15.359826 12.475126-27.901467 27.835975-27.901467l968.286094 0c15.360849 0 27.844162 12.476149 27.844162 27.901467C1023.983115-80.576921 1011.499803-68.28906 996.079602-68.28906M347.37715-68.28906 134.274658-68.28906l0 26.619264L347.438549-41.669796l0-26.619264L347.37715-68.28906zM643.220089-68.28906 528.669146-68.28906 528.669146 47.47143c0 9.282411-7.487531 16.644075-16.70138 16.644075-9.216919 0-16.698311-7.359618-16.698311-16.644075l0-115.759467L380.778888-68.288037 380.778888 140.202415l114.488521 0 0-31.616068c0-9.275247 7.483438-16.764825 16.698311-16.764825s16.702404 7.483438 16.702404 16.764825l0 31.616068 114.550942 0L643.219065-68.28906zM889.656781-68.28906 676.562475-68.28906l0 26.619264 213.094306 0L889.656781-68.28906zM889.656781-8.268058 676.562475-8.268058 676.562475 156.966217c0 9.282411-7.42818 16.765849-16.766872 16.765849L364.081601 173.732066c-9.216919 0-16.702404-7.483438-16.702404-16.765849l0-165.234275-213.103516 0L134.275681 851.553719l755.448638 0 0-859.821777L889.656781-8.268058zM453.35074 313.051111l119.665427 0c9.281387 0 16.769942 7.483438 16.769942 16.636912L589.786109 449.418942c0 9.277294-7.487531 16.696264-16.764825 16.696264L453.35074 466.115206c-9.216919 0-16.70445-7.41897-16.70445-16.696264l0-119.731942C436.64629 320.532503 444.133821 313.051111 453.35074 313.051111M470.053144 432.716538l86.266759 0 0-86.329181-86.266759 0L470.053144 432.716538 470.053144 432.716538zM453.35074 545.79392l119.665427 0c9.281387 0 16.769942 7.487531 16.769942 16.697287L589.786109 682.222125c0 9.216919-7.487531 16.70445-16.764825 16.70445L453.35074 698.926576c-9.216919 0-16.70445-7.487531-16.70445-16.70445l0-119.730918C436.64629 553.341826 444.133821 545.79392 453.35074 545.79392M470.053144 665.524838l86.266759 0 0-86.331227-86.266759 0L470.053144 665.524838 470.053144 665.524838z"  horiz-adv-x="1024" />

    
    <glyph glyph-name="daichuli" unicode="&#58926;" d="M589.94-35.646c8.6 1.637 17.196 3.274 25.382 5.322 5.325 1.229 10.236 4.911 13.103 9.413 2.867 4.916 3.688 10.647 2.457 15.97-2.457 9.416-10.645 15.968-20.471 15.968-1.639 0-3.276-0.409-4.913-0.819-7.776-2.047-15.146-3.686-22.928-4.915-11.462-2.044-18.832-13.1-16.782-24.562 0.817-5.321 4.093-10.232 8.595-13.511 3.686-2.456 7.781-3.684 11.875-3.684C587.485-36.057 588.711-36.057 589.94-35.646zM896.992 488.798c2.045 0 4.503 0.41 6.547 1.229 11.056 3.685 17.196 15.559 13.512 26.612-2.864 8.188-5.729 16.375-9.006 24.563-3.275 8.188-11.053 13.101-19.649 13.101-2.865 0-5.322-0.41-7.78-1.639-5.32-2.045-9.415-6.141-11.463-11.053-2.047-4.913-2.457-11.053 0-15.966 2.865-7.369 5.731-14.739 8.188-22.108 1.229-4.093 4.095-7.779 7.777-10.646C888.396 490.025 892.488 488.798 896.992 488.798L896.992 488.798zM715.22 11.438c3.683 0 7.366 0.817 10.644 2.862 7.369 4.503 15.146 9.009 22.105 13.513 4.505 3.274 7.779 7.777 9.008 13.51 1.228 5.32 0 11.054-2.864 15.967-4.097 5.73-10.646 9.416-17.605 9.416-4.094 0-8.188-1.229-11.462-3.686-6.552-4.503-13.103-8.598-20.062-12.28-10.236-5.733-13.51-18.835-7.779-28.659 1.64-2.867 3.685-4.911 6.143-6.55C706.618 13.072 710.713 11.438 715.22 11.438L715.22 11.438zM905.179 356.561c3.275-2.455 7.369-3.685 11.466-3.685l0.406 0c11.466 0 20.883 9.416 20.883 20.472 0 8.597 0 17.194-0.411 25.792-0.408 11.462-9.825 20.062-20.878 20.062l-0.819 0c-11.466-0.409-20.471-10.236-20.061-21.698 0.409-7.779 0.409-15.558 0-23.337C896.174 367.206 899.45 360.656 905.179 356.561zM849.091 156.774c-3.684 2.863-8.188 4.092-12.69 4.092-6.551 0-12.691-3.275-16.784-8.598-4.505-6.142-9.417-12.281-14.738-18.424-7.368-9.008-6.552-22.107 2.456-29.479 0.407-0.407 0.817-0.815 1.638-1.226 3.686-2.458 7.778-3.687 12.282-3.687 6.14 0 11.874 2.867 15.967 7.369 5.73 6.551 11.052 13.511 16.374 20.47C860.146 136.304 858.1 149.812 849.091 156.774zM905.179 282.458c-2.046 0.819-4.093 0.819-6.142 0.819-9.414 0-17.194-5.731-20.062-14.736-2.455-7.37-4.912-14.739-7.776-22.109-3.274-9.008-0.408-19.24 7.368-24.562 1.229-0.818 2.866-1.639 4.505-2.456 2.453-0.819 4.911-1.23 7.369-1.23 8.596 0 16.375 5.322 19.65 13.513 2.866 7.778 5.731 15.968 8.597 24.562C922.375 266.902 916.234 278.774 905.179 282.458zM819.206 657.063c2.047 0 4.094 1.226 4.909 2.455 0.819 1.229 1.229 3.276 0.409 5.322l-30.702 110.54-32.343-46.672-11.872 7.779C679.19 783.566 597.72 808.542 513.382 808.542c-24.563 0-49.129-2.048-73.692-6.55-10.646-2.048-21.699-4.095-32.342-6.96l-1.229-0.41c-94.571-24.155-175.635-78.605-234.176-156.802l-0.818-1.226c0-0.41-0.41-0.41-0.41-0.819-2.048-2.867-4.096-5.322-5.731-8.188-3.276-4.503-6.141-9.008-9.008-13.511l-0.819-1.637c-48.307-74.51-71.235-160.485-67.551-248.916 0-0.41 0-0.819 0-1.229 0.408-8.187 1.229-16.785 2.047-25.383l0.41-1.639c0.819-9.006 2.048-17.604 3.687-25.792 15.146-87.61 56.497-167.033 119.136-228.854l0 0 0.41-0.41c16.785-16.375 35.207-31.933 54.449-45.442 51.177-36.025 108.492-60.184 169.493-70.827 1.229-0.408 2.455-0.408 3.685-0.408 10.235 0 18.832 7.369 20.47 17.193 0.818 5.73-0.409 11.056-3.276 15.559-3.273 4.503-8.187 7.78-13.511 8.598-32.752 5.732-64.275 15.967-94.163 29.887l-0.407 0.409c-0.41 0-0.41 0.409-0.818 0.409-6.959 3.273-13.92 6.55-20.062 10.234l0 0-0.41 0-2.048 1.229c-11.872 6.551-23.334 13.919-34.387 21.699-83.52 58.954-139.198 146.977-156.803 248.096-17.604 101.124 5.322 202.654 64.278 286.173 25.793 36.846 57.723 68.369 94.16 93.754l1.229 0.816c64.685 44.627 140.016 67.962 218.621 67.962 75.737 0 149.021-22.109 212.07-64.276l12.281-8.188-32.343-47.081L819.206 657.063zM736.506 231.283c5.321 0 10.233 2.868 12.69 7.779 3.687 6.96 0.818 15.558-6.141 19.241l-237.452 122.82L505.603 640.276c0 7.778-6.55 14.329-14.33 14.329s-14.327-6.55-14.327-14.329L476.946 363.93l253.008-131.009C732.003 231.693 734.049 231.283 736.506 231.283z"  horiz-adv-x="1024" />

    
    <glyph glyph-name="icon1" unicode="&#58908;" d="M947.605076 756.19693c-15.766079 15.763009-39.836287 14.107299-57.100486 0C756.795309 646.934434 348.706937 336.578967 348.706937 336.578967s-165.018358 71.127967-216.267579 94.16259c-20.338211 9.141194-41.328267 15.766079-57.101509 0-15.763009-15.763009-15.763009-41.325198 0-57.08616 0 0 242.992243-244.251933 244.156766-245.415432 8.052396-8.052396 18.652825-11.867282 29.212322-11.69332 10.55438-0.174985 21.153786 3.6399 29.211299 11.69332 1.158383 1.163499 427.179173 428.238294 569.685817 570.870806C963.362968 714.881966 963.372178 740.433922 947.605076 756.19693L947.605076 756.19693zM947.605076 756.19693"  horiz-adv-x="1024" />

    
    <glyph glyph-name="icon" unicode="&#58910;" d="M652.349003 309.036681c51.457975 0 98.892311 16.754592 136.650263 44.901653l81.926918-78.754668c5.78782-5.555529 15.168468-5.555529 20.989033 0 5.786797 5.573949 5.786797 14.613836 0 20.172435l-80.683601 77.528748c39.818891 38.755676 64.403822 92.010577 64.403822 150.790308 0 118.52444-99.972922 214.622102-223.285412 214.622102-123.31556 0-223.319182-96.097662-223.319182-214.622102C429.029822 405.134343 529.033443 309.036681 652.349003 309.036681zM458.681142 523.67618c0 25.140587 5.131881 49.510624 15.236006 72.428589 9.740852 22.164812 23.702841 42.057885 41.517579 59.170634 17.787108 17.098423 38.480406 30.519084 61.526285 39.901779 23.864524 9.691733 49.233308 14.612813 75.389014 14.612813 26.152637 0 51.522444-4.92108 75.354222-14.612813 23.048949-9.382695 43.774993-22.803355 61.559031-39.901779 17.785062-17.11275 31.776727-37.006845 41.517579-59.170634 10.069333-22.917966 15.20019-47.288003 15.20019-72.428589 0-25.139563-5.131881-49.51267-15.20019-72.445986-9.741875-22.164812-23.732517-42.074258-41.517579-59.172681-17.784038-17.0974-38.510082-30.516014-61.559031-39.883359-23.831778-9.710153-49.201585-14.631232-75.354222-14.631232-26.155706 0-51.52449 4.92108-75.389014 14.631232-23.045879 9.366322-43.739177 22.785959-61.526285 39.883359-17.814738 17.0974-31.776727 37.007869-41.517579 59.172681C463.813023 474.163509 458.681142 498.536616 458.681142 523.67618zM143.499763 704.738955 360.278995 704.738955c8.729825 0 15.790638 7.900947 15.790638 17.613146 0 9.748015-7.060813 17.630542-15.790638 17.630542L143.499763 739.982644c-8.697079 0-15.756869-7.882528-15.756869-17.630542C127.742894 712.640925 134.802684 704.738955 143.499763 704.738955zM143.499763 370.022661 360.278995 370.022661c8.729825 0 15.790638 7.885598 15.790638 17.616216 0 9.734712-7.060813 17.636682-15.790638 17.636682L143.499763 405.275559c-8.697079 0-15.756869-7.902994-15.756869-17.636682C127.742894 377.908258 134.802684 370.022661 143.499763 370.022661zM878.639866 70.527542 143.499763 70.527542c-8.697079 0-15.756869-7.881504-15.756869-17.630542 0-9.724479 7.059789-17.60496 15.756869-17.60496l735.140103 0c8.698103 0 15.757892 7.880481 15.757892 17.60496C894.397758 62.646038 887.337969 70.527542 878.639866 70.527542zM143.499763 537.35676l183.301769 0c8.729825 0 15.757892 7.898901 15.757892 17.60496 0 9.745968-7.02909 17.625426-15.757892 17.625426L143.499763 572.587146c-8.697079 0-15.756869-7.878434-15.756869-17.625426C127.742894 545.255661 134.802684 537.35676 143.499763 537.35676zM143.499763 202.640466 594.616114 202.640466c8.725732 0 15.755846 7.887644 15.755846 17.623379s-7.030114 17.622356-15.755846 17.622356L143.499763 237.886201c-8.697079 0-15.756869-7.886621-15.756869-17.622356S134.802684 202.640466 143.499763 202.640466z"  horiz-adv-x="1024" />

    
    <glyph glyph-name="quxiao1" unicode="&#58972;" d="M512 850.626603c-257.710456 0-466.626603-208.916147-466.626603-466.626603s208.915124-466.626603 466.626603-466.626603 466.626603 208.915124 466.626603 466.626603S769.710456 850.626603 512 850.626603zM754.945171 231.670639c22.561855-22.561855 22.561855-59.482743 0-82.044598l-20.511149-20.511149c-22.561855-22.561855-59.482743-22.561855-82.044598 0L506.030032 275.475308 359.670639 129.115915c-22.561855-22.561855-59.482743-22.561855-82.044598 0l-20.511149 20.511149c-22.561855 22.561855-22.561855 59.482743 0 82.044598l146.359392 146.359392L245.175979 536.329361c-22.561855 22.561855-22.561855 59.482743 0 82.044598l20.511149 20.511149c22.561855 22.561855 59.482743 22.561855 82.044598 0L506.030032 480.585779l158.298306 158.298306c22.561855 22.561855 59.482743 22.561855 82.044598 0l20.511149-20.511149c22.561855-22.561855 22.561855-59.482743 0-82.044598L608.585779 378.031055 754.945171 231.670639z"  horiz-adv-x="1024" />

    
    <glyph glyph-name="huifangguanli" unicode="&#58913;" d="M198.358002 449.904377c0 38.373817 25.582545 63.956362 63.956362 63.956362s63.956362-25.582545 63.956362-63.956362-25.582545-63.956362-63.956362-63.956362S198.358002 411.53056 198.358002 449.904377L198.358002 449.904377zM454.183449 449.904377c0 38.373817 25.582545 63.956362 63.956362 63.956362s63.956362-25.582545 63.956362-63.956362-25.582545-63.956362-63.956362-63.956362S454.183449 411.53056 454.183449 449.904377L454.183449 449.904377zM901.877981 0.610935 831.781809 0.610935l0 63.956362 76.491809 0c31.978181 0 51.420915 27.181454 51.420915 65.555271l0 633.167982C959.694532 801.664366 940.251798 832.043638 908.273618 832.043638l-786.66325 0C89.632187 832.043638 64.305468 801.664366 64.305468 763.290549l0-633.167982C64.305468 91.748751 89.632187 64.567297 121.610368 64.567297l492.463986 0 0 0 0 0 0 0c6.395636 0 12.791272-5.62816 19.186909-12.023796l115.121451-127.528985c12.791272-12.791272 12.791272-31.786312 0-44.577584-12.791272-12.791272-31.978181-10.296974-44.769453 2.494298L601.283081 0.610935l-473.277077 0C57.654006 0.610935 0.349106 59.77057 0.349106 136.518204l0 620.376709C0.349106 833.642547 57.654006 896 128.006004 896l767.476341 0C965.834343 896 1023.650894 833.642547 1023.650894 756.894913l0-620.376709C1023.650894 66.166206 972.229979 0.610935 901.877981 0.610935L901.877981 0.610935zM710.008896 449.904377c0 38.373817 25.582545 63.956362 63.956362 63.956362s63.956362-25.582545 63.956362-63.956362-25.582545-63.956362-63.956362-63.956362S710.008896 411.53056 710.008896 449.904377L710.008896 449.904377z"  horiz-adv-x="1024" />

    
    <glyph glyph-name="shouqi" unicode="&#58930;" d="M1011.2 275.2l-38.4-51.2-460.8 371.2-460.8-371.2-38.4 51.2 499.2 403.2z"  horiz-adv-x="1024" />

    
    <glyph glyph-name="filevideo" unicode="&#58954;" d="M917.8112 666.9312c-22.20032 30.28992-53.16608 65.69984-87.18336 99.69664s-69.40672 64.96256-99.69664 87.18336c-51.56864 37.82656-76.5952 42.1888-90.9312 42.1888l-496.00512 0c-44.11392 0-79.99488-35.88096-79.99488-79.99488l0-864.01024c0-44.11392 35.88096-79.99488 79.99488-79.99488l736.01024 0c44.11392 0 79.99488 35.88096 79.99488 79.99488l0 624.00512c0 14.336-4.36224 39.34208-42.1888 90.9312l0 0 0 0zM785.36704 721.36704c30.69952-30.69952 54.80448-58.38848 72.58112-81.36704l-153.94816 0 0 153.94816c22.97856-17.77664 50.688-41.8816 81.36704-72.58112l0 0 0 0zM896-48.00512c0-8.66304-7.33184-15.99488-15.99488-15.99488l-736.01024 0c-8.66304 0-15.99488 7.33184-15.99488 15.99488l0 864.01024c0 8.66304 7.33184 15.99488 15.99488 15.99488 0 0 495.96416 0 496.00512 0l0-224.01024c0-17.67424 14.31552-32.01024 32.01024-32.01024l224.01024 0 0-624.00512zM256 384l320 0 0-320-320 0 0 320zM576 256l192 128 0-320-192 128z"  horiz-adv-x="1024" />

    
    <glyph glyph-name="youxuanluxian" unicode="&#58982;" d="M670.237931 340.303802c-4.16281 52.713572 173.403329 51.326992 173.403329 51.326992s-137.857764 30.131251-202.535833-23.584138c-81.845053-67.973114 41.61684-110.977557 69.361741-138.722458 27.743878-27.743878 30.519084-76.29771-91.557252-79.07087-122.07429-2.775206-208.083176 5.547343-208.083176 5.547343s-24.222681-100.845803-45.777603-153.980977c0 0 234.43945-6.935969 328.770885 15.258519 94.332459 22.195511 194.21226 97.106642 151.20884 183.113481C802.025443 286.201603 674.399717 287.588183 670.237931 340.303802L670.237931 340.303802zM326.20648 732.887039c-128.712477 0-233.053893-104.340393-233.053893-233.053893 0-128.712477 185.887664-230.277664 233.053893-487.023142 66.586534 252.583692 233.053893 358.311689 233.053893 487.023142C559.261397 628.545622 454.917934 732.887039 326.20648 732.887039L326.20648 732.887039zM326.20648 376.371252c-68.186985 0-123.462916 55.275931-123.462916 123.461893 0 68.186985 55.275931 123.462916 123.462916 123.462916s123.461893-55.275931 123.461893-123.462916C449.669396 431.647183 394.393465 376.371252 326.20648 376.371252L326.20648 376.371252zM917.870868 629.877967c0 56.889685-46.118364 103.009072-103.008049 103.009072-56.889685 0-103.009072-46.118364-103.009072-103.009072s82.161255-101.782128 103.009072-215.261669C844.294129 526.256958 917.870868 572.988282 917.870868 629.877967L917.870868 629.877967zM760.292969 629.877967c0 30.137391 24.431435 54.56985 54.56985 54.56985 30.138414 0 54.570873-24.431435 54.570873-54.56985 0-30.138414-24.431435-54.56985-54.570873-54.56985C784.724405 575.30914 760.292969 599.739553 760.292969 629.877967L760.292969 629.877967z"  horiz-adv-x="1024" />

    
    <glyph glyph-name="notpass-1-copy" unicode="&#58911;" d="M910.135 66.679c0.991-1.284-0.131-0.133 1.153-1.153 38.941-39.522 77.889-79.040 116.83-118.529 8.96-9.030 31.681-25.442 24.512-49.284-1.020-3.423-4.864-11.105-7.006-14.079-9.918-13.922-36.769-15.172-51.393-4.706-44.768 45.376-89.568 90.754-134.335 136.132-1.314-1.025-0.131 0.126-1.186-1.186-3.901-2.461-6.176-6.206-9.342-9.375-7.393-7.423-14.785-14.879-22.178-22.306-23.361-23.072-46.754-46.144-70.115-69.247-10.494-10.947-21.021-21.889-31.52-32.867-16.896-12.032-41.505-3.901-50.401 9.41-2.495 3.745-2.011 6.783-3.516 11.743-7.744 25.89 12.349 38.049 23.551 49.279 26.847 27.393 53.727 54.754 80.607 82.147 7.779 7.806 15.552 15.65 23.331 23.458 3.423 3.423 7.71 5.313 9.375 10.562-4.35 2.684-7.006 7.036-10.528 10.555l-22.178 22.307c-23.776 23.873-47.521 47.711-71.267 71.585-13.663 13.73-32.798 25.665-38.556 46.944-4.419 16.29 10.557 30.402 18.687 34.724 3.676 1.953 8.609 1.118 11.68 3.52 29.791 0.064 38.941-15.173 53.727-30.022 26.080-25.821 52.194-51.645 78.274-77.472 6.69-6.686 24.767-29.151 32.706-31.682 44 44.611 88.030 89.189 132.030 133.798 16.675 11.905 42.115 5.026 51.393-8.228 7.426-10.59 7.456-31.681 0-42.238-44.765-44.606-89.566-89.184-134.333-133.789v0zM288.011 223.033h223.972c17.696 0 32.003-14.338 32.003-32 0-17.701-14.307-32.002-32.003-32.002h-223.972c-17.696 0-31.997 14.3-31.997 32.002 0 17.662 14.302 32 31.997 32v0zM703.986 607.036h-415.975c-17.696 0-31.997 14.303-31.997 31.998 0 17.667 14.302 32.003 31.997 32.003h415.975c17.696 0 32.032-14.337 32.032-32.003 0-17.696-14.337-31.998-32.032-31.998v0zM703.986 383.031h-415.975c-17.696 0-31.997 14.307-31.997 32.005 0 17.666 14.302 31.997 31.997 31.997h415.975c17.696 0 32.032-14.332 32.032-31.997 0-17.698-14.337-32.005-32.032-32.005v0zM959.99 287.032c-17.662 0-31.998 14.303-31.998 32 0 0.645 0.351 1.153 0.381 1.791h-0.669v443.691c0 21.246 0.669 42.975-8.003 55.168-9.629 13.472-32.608 11.709-55.905 11.709h-738.504c-23.296 0-45.284 1.763-54.913-11.709-8.673-12.193-7.008-33.922-7.008-55.168v-723.626c0-23.394-1.729-55.49 11.68-65.152 11.197-8.034 25.152-8.034 44.415-8.034h454.916v-0.991c0.576 0 1.060 0.318 1.636 0.318 17.662 0 31.998-14.337 31.998-31.998 0-17.701-14.337-32.002-31.998-32.002-4.8 0-9.219 1.185-13.315 3.071h-443.426c-11.875 0-26.115-0.739-36.226 2.176-32.193 9.249-60.734 29.215-73.601 57.502-10.978 24.161-9.347 57.093-9.347 92.708l0 160.772v544.132c0 24.098-1.373 48.771 5.86 65.701 9.95 23.423 29.853 47.101 52.545 57.502 6.171 2.851 13.599 5.059 19.868 7.041 3.97 1.278 8.834 0.161 11.68 2.368h808.974c2.876-2.206 7.71-1.089 11.68-2.368 6.27-1.983 13.697-4.191 19.869-7.041 22.691-10.4 42.594-34.079 52.58-57.502 7.198-16.929 6.816-41.602 6.816-65.701l0-434.373c1.084-3.168 2.016-6.43 2.016-9.984-0.003-17.697-14.309-32-32.005-32v0zM959.99 287.032z"  horiz-adv-x="1055" />

    
    <glyph glyph-name="sousuo" unicode="&#59048;" d="M1004.8-19.2l-243.2 243.2c0 0-6.4 6.4-6.4 6.4C800 300.8 832 390.4 832 480 832 710.4 646.4 896 416 896S0 710.4 0 480 185.6 64 416 64c89.6 0 179.2 32 243.2 83.2 0-6.4 6.4-6.4 6.4-6.4l243.2-243.2c25.6-25.6 70.4-25.6 96-6.4C1030.4-83.2 1030.4-44.8 1004.8-19.2zM64 480C64 672 224 832 416 832S768 672 768 480 608 128 416 128 64 288 64 480z"  horiz-adv-x="1024" />

    
    <glyph glyph-name="photo" unicode="&#59023;" d="M846.608 651.236l-122.15 122.152c-26.56 26.555-79.085 48.357-116.7 48.357L197.372 821.745c-37.622 0-68.4-30.78-68.4-68.397l0-738.696c0-37.615 30.78-68.4 68.4-68.4l629.256 0c37.62 0 68.4 30.78 68.4 68.4L895.028 534.476C895.028 572.096 873.223 624.676 846.608 651.236zM676.148 742.608c3.69-2.565 6.95-5.235 9.62-7.905l122.15-122.157c2.68-2.67 5.35-5.932 7.97-9.67l-139.74 0L676.148 742.608zM840.308 14.657 840.308 14.657c0-7.43-6.305-13.685-13.68-13.685L197.372 0.972c-7.48 0-13.682 6.31-13.682 13.685L183.69 753.35c0 7.425 6.305 13.68 13.682 13.68l410.386 0c4.06 0 8.76-0.535 13.68-1.497l0-217.374 217.369 0c0.97-4.915 1.5-9.515 1.5-13.68L840.307 14.657 840.308 14.657zM800 40.96 224 40.96l0 115.2L381.44 408.32l252.06272-252.16L800 271.36 800 40.96zM800 384.62976c0-47.71328-38.69184-86.41024-86.41024-86.41024-47.71328 0-86.41024 38.69696-86.41024 86.41024 0 47.7184 38.69696 86.41024 86.41024 86.41024C761.30816 471.04 800 432.34816 800 384.62976z"  horiz-adv-x="1024" />

    
    <glyph glyph-name="haofangtuo400iconfontzhaoxiang" unicode="&#59094;" d="M512-68.608c-61.090816 0-120.367104 11.969536-176.183296 35.57888-53.899264 22.797312-102.300672 55.428096-143.858688 96.987136-41.558016 41.558016-74.189824 89.959424-96.987136 143.858688C71.36256 263.632896 59.392 322.910208 59.392 384s11.97056 120.367104 35.57888 176.183296c22.797312 53.900288 55.42912 102.300672 96.987136 143.858688 41.558016 41.55904 89.959424 74.189824 143.858688 96.987136C391.632896 824.638464 450.909184 836.608 512 836.608s120.367104-11.969536 176.183296-35.57888c53.899264-22.797312 102.300672-55.428096 143.858688-96.987136 41.558016-41.558016 74.189824-89.959424 96.987136-143.858688C952.63744 504.367104 964.608 445.089792 964.608 384c0-88.036352-25.302016-173.3888-73.170944-246.832128-7.719936-11.845632-23.581696-15.186944-35.42528-7.469056-11.844608 7.719936-15.188992 23.580672-7.468032 35.426304C890.978304 230.230016 913.408 305.915904 913.408 384c0 54.201344-10.609664 106.76736-31.53408 156.237824-20.215808 47.797248-49.163264 90.727424-86.035456 127.599616-36.873216 36.873216-79.804416 65.819648-127.60064 86.03648C618.76736 774.798336 566.201344 785.408 512 785.408s-106.76736-10.609664-156.237824-31.53408c-47.796224-20.215808-90.727424-49.163264-127.60064-86.03648-36.872192-36.873216-65.819648-79.803392-86.035456-127.599616C121.201664 490.76736 110.592 438.201344 110.592 384s10.609664-106.76736 31.53408-156.237824c20.215808-47.797248 49.163264-90.727424 86.035456-127.599616 36.873216-36.873216 79.804416-65.819648 127.60064-86.03648C405.23264-6.798336 457.798656-17.408 512-17.408c80.4864 0 158.121984 23.724032 224.513024 68.605952 11.712512 7.917568 27.62752 4.842496 35.546112-6.87104 7.917568-11.712512 4.842496-27.626496-6.87104-35.546112C690.296832-41.846784 602.745856-68.608 512-68.608zM307.207168 153.598976c-6.642688 0-13.193216 2.582528-18.10944 7.498752-7.791616 7.791616-9.72288 19.694592-4.795392 29.550592l136.532992 273.067008c2.477056 4.954112 6.494208 8.971264 11.449344 11.44832L705.35168 611.69664c9.856 4.929536 21.757952 2.997248 29.550592-4.795392 7.791616-7.791616 9.72288-19.694592 4.795392-29.550592L603.163648 304.283648c-2.477056-4.954112-6.494208-8.971264-11.449344-11.44832L318.64832 156.30336C315.011072 154.483712 311.093248 153.598976 307.207168 153.598976zM462.814208 433.185792l-98.37056-196.743168 196.742144 98.37056 98.37056 196.743168L462.814208 433.185792z"  horiz-adv-x="1024" />

    
    <glyph glyph-name="weizhi" unicode="&#58944;" d="M511.998465-123.833097c0 0-380.87252 424.445922-380.87252 634.792651 0 210.328309 170.528861 380.874567 380.87252 380.874567 210.344682 0 380.87559-170.546258 380.87559-380.874567C892.874055 300.613848 511.998465-123.833097 511.998465-123.833097zM511.998465 764.87559c-140.223648 0-253.916037-113.692389-253.916037-253.91706 0-140.243091 113.692389-253.91706 253.916037-253.91706 140.224672 0 253.915014 113.673969 253.915014 253.91706C765.913479 651.185248 652.223137 764.87559 511.998465 764.87559zM511.998465 384.002047c-70.120011 0-126.956484 56.837496-126.956484 126.956484 0 70.121034 56.836473 126.95853 126.956484 126.95853 70.120011 0 126.959553-56.837496 126.959553-126.95853C638.958018 440.839543 582.118476 384.002047 511.998465 384.002047z"  horiz-adv-x="1024" />

    
    <glyph glyph-name="daishenhe" unicode="&#58924;" d="M258.698 702.955h511.997v-63.999h-511.997v63.999zM256.991 574.332h511.996v-63.999l-511.996 0v63.999zM256.991 446.34h329.245v-64l-329.245 0v64zM256.991 318.338h138.1v-64h-138.1v64zM898.695 896h-767.994c-35.345 0-63.999-28.654-63.999-64v-895.992c0-35.345 28.654-63.999 63.999-63.999l299.4 0.328v63.999l-299.4-0.328-0 895.992h767.995v-409.599h63.999v409.599c-0.002 35.346-28.66 64-64 64v0zM759.591 338.343c-128.769 0-233.165-104.406-233.165-233.176 0-128.759 104.396-233.165 233.165-233.165s233.165 104.406 233.165 233.165c0 128.77-104.397 233.176-233.165 233.176zM759.591-69.701c-96.416 0-174.879 78.442-174.879 174.868 0 96.416 78.463 174.879 174.879 174.879 96.438 0 174.88-78.464 174.88-174.879-0.001-96.426-78.443-174.868-174.88-174.868zM788.739 117.238v104.523c0 16.108-13.039 29.138-29.148 29.138-16.108 0-29.148-13.030-29.148-29.138v-116.688c0.021-8.022 3.279-15.286 8.571-20.535l58.253-58.276c5.693-5.692 13.157-8.528 20.621-8.528 7.453 0 14.917 2.836 20.609 8.528 11.375 11.385 11.375 29.845 0 41.229l-49.758 49.747z"  horiz-adv-x="1024" />

    
    <glyph glyph-name="fangdajing" unicode="&#58919;" d="M939.904756-9.321487 685.013561 245.569707c27.446389 29.671163 49.319585 63.491009 65.076186 100.738071 18.178883 42.974782 27.396244 88.604147 27.396244 135.620159 0 47.020105-9.217361 92.652541-27.395221 135.630393-17.550543 41.493987-42.668799 78.751283-74.656838 110.737276-31.98804 31.985993-69.247382 57.103225-110.743416 74.653768-42.979899 18.17786-88.617451 27.394198-135.64165 27.394198-47.020105 0-92.652541-9.217361-135.629369-27.395221-41.492963-17.54952-78.750259-42.666752-110.736252-74.653768s-57.103225-69.244312-74.653768-110.737276c-18.17786-42.977852-27.395221-88.609264-27.395221-135.629369 0-47.016012 9.217361-92.644354 27.395221-135.619136 17.550543-41.490917 42.666752-78.746166 74.653768-110.731135s69.243289-57.101178 110.736252-74.649675c42.977852-18.17786 88.610288-27.395221 135.629369-27.395221 47.025222 0 92.660728 9.216338 135.64165 27.394198 23.60062 9.980784 45.823803 22.416598 66.493533 37.164171l258.067689-258.067689c6.994633-6.99361 16.160827-10.490415 25.32702-10.490415s18.332387 3.496805 25.32702 10.490415C953.891976-45.987284 953.891976-23.309731 939.904756-9.321487zM429.047844 205.168664c-152.617067 0-276.779741 124.153463-276.779741 276.760297 0 152.617067 124.162674 276.780764 276.779741 276.780764 152.629348 0 276.802255-124.163697 276.802255-276.780764C705.850098 329.322127 581.677191 205.168664 429.047844 205.168664z"  horiz-adv-x="1024" />

    
    <glyph glyph-name="zip" unicode="&#59243;" d="M582.294588 896l-461.824 0 0-1024 783.058824 0 0 704.271059-321.234824 319.728941zM602.352941 791.070118l197.150118-196.246588-197.150118 0 0 196.246588zM180.705882-67.764706l0 903.529412 180.705882 0 0-60.235294 60.235294 0 0 60.235294 120.470588 0 0-301.176471 301.176471 0 0-602.352941-662.588235 0zM301.176471 414.117647l60.235294 0 0-60.235294-60.235294 0 0 60.235294zM361.411765 414.117647l0 60.235294 60.235294 0 0-60.235294-60.235294 0zM361.411765 534.588235l0 60.235294 60.235294 0 0-60.235294-60.235294 0zM301.176471 534.588235l60.235294 0 0-60.235294-60.235294 0 0 60.235294zM301.176471 655.058824l60.235294 0 0-60.235294-60.235294 0 0 60.235294zM361.411765 655.058824l0 60.235294 60.235294 0 0-60.235294-60.235294 0zM301.176471 775.529412l60.235294 0 0-60.235294-60.235294 0 0 60.235294zM361.411765 330.450824c-66.439529 0-120.470588-54.031059-120.470588-120.470588s54.031059-120.470588 120.470588-120.470588c3.734588 0 7.288471 0.421647 13.191529 1.204706 38.912 4.276706 73.366588 27.407059 92.220235 61.801412 9.999059 18.251294 15.058824 37.586824 15.058824 57.464471 0 66.439529-54.031059 120.470588-120.470588 120.470588zM413.997176 181.368471c-9.396706-17.167059-26.563765-28.732235-45.899294-30.840471l-6.746353-0.843294c-33.189647 0-60.175059 27.045647-60.175059 60.235294s27.045647 60.235294 60.235294 60.235294 60.235294-27.045647 60.235294-60.235294c0-9.577412-2.590118-19.215059-7.649882-28.551529z"  horiz-adv-x="1024" />

    
    <glyph glyph-name="weibiaoti403" unicode="&#59153;" d="M828.509091 849.454545 195.490909 849.454545C113.570909 849.454545 46.545455 782.429091 46.545455 700.509091l0-633.018182c0-81.92 67.025455-148.945455 148.945455-148.945455l633.018182 0c81.92 0 148.945455 67.025455 148.945455 148.945455L977.454545 700.509091C977.454545 782.429091 910.429091 849.454545 828.509091 849.454545zM798.72 482.676364l0-125.672727 0-37.236364c0-18.618182-15.825455-34.443636-34.443636-34.443636L564.130909 285.323636c-18.618182 0-34.443636-15.825455-34.443636-34.443636l0-109.847273c0-18.618182-15.825455-34.443636-34.443636-34.443636L259.723636 106.589091c-18.618182 0-34.443636 15.825455-34.443636 34.443636L225.28 359.796364l203.869091 0 0 37.236364L225.28 397.032727 225.28 626.967273c0 18.618182 15.825455 34.443636 34.443636 34.443636l230.865455 0c24.203636 0 39.098182-15.825455 39.098182-40.029091l0 2.792727c0-2.792727 0-5.585455 0.930909-8.378182l0-197.352727 37.236364 0L567.854545 590.661818c2.792727 0 5.585455-0.930909 9.309091-0.930909l186.181818 0c18.618182 0 34.443636-15.825455 34.443636-34.443636L797.789091 482.676364z"  horiz-adv-x="1024" />

    
    <glyph glyph-name="wanchengdu" unicode="&#58935;" d="M931.832 570.167c-22.213 52.518-54.007 99.677-94.498 140.167-40.49 40.491-87.65 72.285-140.168 94.498C642.778 827.836 585.021 839.5 525.5 839.5S408.222 827.836 353.833 804.832c-52.518-22.213-99.677-54.007-140.167-94.498-40.491-40.491-72.285-87.65-94.498-140.167C96.164 515.778 84.5 458.021 84.5 398.5s11.664-117.278 34.668-171.666c8.26-19.529 17.859-38.31 28.731-56.285l-56.215-56.216 192.745-28.969L255.46 278.109l-63.706-63.706C160.911 270.127 144.5 333.049 144.5 398.5c0 101.769 39.631 197.446 111.592 269.408S423.731 779.5 525.5 779.5c101.769 0 197.446-39.631 269.408-111.592C866.869 595.946 906.5 500.269 906.5 398.5c0-101.769-39.631-197.446-111.592-269.408C722.946 57.131 627.269 17.5 525.5 17.5c-19.885 0-39.536 1.521-58.825 4.492-7.771-19.799-15.546-39.43-22.547-57.02 26.64-4.968 53.816-7.473 81.372-7.473 59.521 0 117.278 11.664 171.666 34.668 52.518 22.213 99.678 54.007 140.168 94.498 40.491 40.49 72.285 87.65 94.498 140.168C954.836 281.222 966.5 338.979 966.5 398.5S954.836 515.778 931.832 570.167zM467.238 258.533l0.023-0.021 0.003-0.001c6.186-5.558 14.364-8.942 23.334-8.942 8.969 0 17.148 3.385 23.333 8.941l0.004 0 0.023 0.024c0.914 0.822 1.783 1.692 2.605 2.606l257.746 257.745c13.62 13.62 13.62 35.705-0.001 49.328-13.621 13.621-35.708 13.621-49.329-0.001L490.598 333.831 355.018 469.41c-13.621 13.621-35.706 13.621-49.328-0.001-13.623-13.621-13.622-35.706 0-49.327L464.63 261.143C465.454 260.229 466.324 259.357 467.238 258.533z"  horiz-adv-x="1024" />

    
    <glyph glyph-name="scancode" unicode="&#58895;" d="M0 355.569v56.859h1080.856v-56.859h-1080.856zM995.526 839.111h-341.323v56.887h341.323c31.402 0 56.887-25.485 56.887-56.887v-341.323h-56.887v341.323zM85.331 497.787h-56.887v341.323c0 31.402 25.457 56.887 56.887 56.887h341.323v-56.887h-341.323v-341.323zM85.331-71.113h341.323v-56.859h-341.323c-31.43 0-56.887 25.457-56.887 56.859v341.352h56.887v-341.352zM995.526 270.239h56.887v-341.352c0-31.402-25.485-56.859-56.887-56.859h-341.323v56.859h341.323v341.352z"  horiz-adv-x="1081" />

    
    <glyph glyph-name="xuanzeanniu" unicode="&#58896;" d="M511.7 831.3c-247.4 0-448-200.6-448-448s200.6-448 448-448 448 200.6 448 448-200.6 448-448 448z m-0.2-850.5c-222.6 0-403 180.4-403 403s180.4 403 403 403 403-180.4 403-403-180.5-403-403-403zM512 382.8m-275 0a275 275 0 1 1 550 0 275 275 0 1 1-550 0Z"  horiz-adv-x="1024" />

    
    <glyph glyph-name="zhuzhuangtuicon" unicode="&#58897;" d="M103.434343 787.393939h853.333334v-175.838383H103.434343zM103.434343 477.090909h636.121213v-175.838384H103.434343zM103.434343 182.30303h449.939394v-175.838384H103.434343z"  horiz-adv-x="1044" />

    
    <glyph glyph-name="yuyin1" unicode="&#59004;" d="M636.16512-61.440000000000055l-70.80448 70.8096c107.59168 92.06272 176.03072 228.58752 176.03072 381.31712 0 145.49504-62.2848 276.1216-161.1776 367.77472L651.19232 829.44c117.01248-109.82912 190.51008-265.47712 190.51008-438.60992 0-180.44416-79.77984-341.90848-205.53728-452.27008zM445.08672 129.64351999999997l-72.93952 72.92928c66.28352 36.64384 111.19104 107.16672 111.19104 188.25728 0 73.61536-37.04832 138.5216-93.47072 177.29024l71.62368 71.61344C535.72096 582.0262399999999 583.68 492.11904 583.68 390.83008c0-108.65664-54.95808-204.44672-138.59328-261.18656zM253.96736 304.81408c-39.5776 0-71.66976 32.08192-71.66976 71.67488 0 39.59808 32.08704 71.67488 71.66976 71.67488 39.60832 0 71.68-32.0768 71.68-71.67488 0-39.59296-32.07168-71.67488-71.68-71.67488z"  horiz-adv-x="1024" />

    
    <glyph glyph-name="gengduo1" unicode="&#58916;" d="M557.179-8c-8.189 0-16.379 3.124-22.628 9.372-12.496 12.497-12.496 32.759 0 45.256L871.924 384 534.551 721.373c-12.496 12.497-12.496 32.758 0 45.255 12.498 12.497 32.758 12.497 45.256 0l360-360c12.496-12.497 12.496-32.758 0-45.255l-360-360c-6.249-6.249-14.439-9.373-22.628-9.373z"  horiz-adv-x="1024" />

    
    <glyph glyph-name="dianhua2" unicode="&#59005;" d="M512-128C229.6832-128 0 101.6832 0 384S229.6832 896 512 896s512-229.6832 512-512-229.6832-512-512-512z m0 972.8C257.92 844.8 51.2 638.08 51.2 384s206.72-460.8 460.8-460.8 460.8 206.72 460.8 460.8S766.08 844.8 512 844.8zM461.2352 323.328c-65.4592 65.3824-128 141.1584-97.9968 171.1104 42.8544 42.88 80.2048 69.2736 4.2752 163.7888-75.9296 94.5152-126.5664 21.9392-168.1408-19.6096-47.8976-47.9232-2.5344-226.56 174.0288-403.1232 176.5376-176.5376 355.2256-221.9776 403.1232-174.0288 41.5744 41.5232 114.0992 92.1344 19.6352 168.0896s-120.9088 38.6304-163.7632-4.2496c-30.0288-29.8752-105.7536 32.64-171.1616 98.0224z"  horiz-adv-x="1024" />

    
    <glyph glyph-name="fuwuerji" unicode="&#58918;" d="M832 133.76 832 128c0-96.64-83.84-176-192-189.44L640-32c0 17.92-14.08 32-32 32l-128 0C462.08 0 448-14.08 448-32l0-64C448-113.92 462.08-128 480-128l128 0c159.36 0 288 114.56 288 256l0 5.76M896 133.76c37.12 13.44 64 48.64 64 90.24l0 128c0 41.6-26.88 76.8-64 90.24L896 448c0 211.84-172.16 384-384 384C300.16 832 128 659.84 128 448l0-5.76C90.88 428.8 64 393.6 64 352l0-128C64 170.88 106.88 128 160 128S256 170.88 256 224l0 128c0 41.6-26.88 76.8-64 90.24L192 448c0 176.64 143.36 320 320 320 176.64 0 320-143.36 320-320l0-5.76c-37.12-13.44-64-48.64-64-90.24l0-128c0-41.6 26.88-76.8 64-90.24M192 224C192 206.08 177.92 192 160 192S128 206.08 128 224l0 128C128 369.92 142.08 384 160 384S192 369.92 192 352L192 224zM896 224c0-17.92-14.08-32-32-32S832 206.08 832 224l0 128C832 369.92 846.08 384 864 384S896 369.92 896 352L896 224z"  horiz-adv-x="1024" />

    
    <glyph glyph-name="xiala11" unicode="&#59006;" d="M382.349955 88.117518l-281.403018 422.104527c-70.708904 106.012191 5.321075 248.043969 132.719896 248.043969h562.806036c127.398821 0 203.4288-142.031778 132.719896-248.043969L647.789747 88.117518c-63.136604-94.653742-202.303188-94.653742-265.439792 0z"  horiz-adv-x="1024" />

    
    <glyph glyph-name="dvt-priceSheet" unicode="&#58990;" d="M804.59 301.058c0-89.717 0.090-179.434-0.047-269.151-0.051-33.774-8.393-42.004-42.67-42.022-166.41-0.093-332.819-0.098-499.229 0.010-32.72 0.020-41.458 8.602-41.479 41.001-0.122 179.434 0.123 358.866-0.32 538.299-0.050 20.279 6.756 33.906 24.553 44.27 78.763 45.871 157.465 91.875 235.257 139.361 23.493 14.34 42.14 13.854 65.628-0.577 77.65-47.705 156.369-93.696 235.268-139.323 17.701-10.237 22.916-23.737 22.826-42.721-0.427-89.714-0.19-179.429-0.19-269.145 0.135-0.001 0.27-0.001 0.404-0.001zM425.167 423.585c-6.591 0-9.486 0.016-12.38-0.002-24.127-0.158-24.146-0.17-13.397-21.893 13.478-27.236 26.948-54.476 40.502-81.676 18.013-36.148 18.084-36.937-21.75-38.841-18.847-0.9-17.646-12.347-18.087-25.094-0.478-13.791 2.999-22.353 19.183-21.442 14.426 0.81 28.938-0.010 43.41 0.117 11.11 0.097 20.397-1.315 20.195-15.913-0.205-14.835-10.417-15.306-20.961-15.458-13.024-0.189-26.091-0.755-39.067 0.028-16.793 1.012-23.067-5.781-22.993-22.771 0.070-16.924 7.869-21.566 22.765-20.485 6.479 0.468 13.021 0.033 19.534 0.058 44.931 0.176 41.142 0.786 41.118-39.239-0.004-8.313-1.771-17.52 9.843-21.332 31.658-10.396 48.621 1.221 49.114 34.256 0.033 2.17 0.189 4.351 0.045 6.51-0.915 13.678 5.302 20.043 19.131 19.77 15.189-0.301 30.406 0.491 45.583 0.001 14.765-0.477 18.382 7.367 18.303 20.363-0.079 13.007-1.712 23.229-18.323 22.719-13.735-0.421-27.5-0.207-41.244 0.129-10.747 0.261-22.832-1.172-23.197 15.355-0.363 16.422 10.979 16.001 22.226 16.002 12.302 0.002 24.678 0.883 36.889-0.165 17.958-1.54 23.916 5.645 23.999 23.565 0.089 18.818-7.936 24.572-24.884 22.807-2.863-0.298-5.786-0.074-8.681-0.011-23.392 0.518-24.927 2.686-14.846 23.166 15.018 30.512 30.374 60.855 45.589 91.269 14.117 28.219 14.006 26.558-18.391 28.757-24.596 1.669-38.742-5.775-47.551-29.482-10.047-27.038-23.77-52.717-36.060-78.909-2.053-4.377-2.366-11.148-8.265-11.701-6.832-0.641-6.448 6.797-8.382 10.905-12.323 26.178-25.52 52.055-35.878 79.013-8.723 22.691-20.841 36.032-43.092 29.63zM513.746 512.182c35.468 0.334 63.518 28.796 62.617 63.541-0.887 34.178-28.677 61.105-63.212 61.249-35.206 0.146-64.163-28.368-63.842-62.864 0.326-35.093 28.594-62.26 64.437-61.925z"  horiz-adv-x="1024" />

    
    <glyph glyph-name="fangpan" unicode="&#58999;" d="M262.5 447.6h118.9v-77H262.5zM262.5 280.1h118.9v-77H262.5zM262.5 608.4h118.9v-77H262.5zM409.1 608.4H528v-77H409.1zM409.1 447.6H528v-77H409.1zM409.1 280.1H528v-77H409.1zM548.9 80.1H219.5V689.9c0 14 14 28 28 28H542c14 0 28-14 28-28v-348.3c19.2 23.5 42.9 43.2 70 57.6v87.5l133.2-35.1c13.4-4.5 23.9-17.5 29.8-31.6 27.4-6.6 52.9-18 75.5-33.6v58.1c0 21-21 42-42 49.1l-189.2 49.1V746c0 28-21 49.1-49.1 49.1H191.5c-28 0-49.1-21-49.1-49.1v-666h-49c-14 0-28-14-28-35.1v-21c0-14 14-28 28-28h539.9c-35 20.1-64 49.1-84.4 84.2zM943.4 72c-19.9-31.3-47.2-57.5-79.4-76.3h56.4c14 0 28 14 28 28v21.1c3.9 11.6 1.5 21-5 27.2zM757.6 359.8c-127.2 0-204.9-153.6-204.9-153.6s101.6-153.6 204.9-153.6c128.8 0 204.9 153.6 204.9 153.6s-78.4 153.6-204.9 153.6z m0-268.8c-63.7 0-115.2 51.6-115.2 115.2S694 321.4 757.6 321.4s115.2-51.6 115.2-115.2S821.2 91 757.6 91zM757.6 206.2m-51.2 0a51.2 51.2 0 1 1 102.4 0 51.2 51.2 0 1 1-102.4 0Z"  horiz-adv-x="1024" />

    
    <glyph glyph-name="dizhi" unicode="&#58957;" d="M503.473064 895.653805c-202.945598 0-332.573092-163.735238-332.573092-366.680837 0-202.96065 283.127398-494.577354 332.573092-494.577354 49.475798 0 332.573092 291.616704 332.573091 494.577354C836.061207 731.918567 706.433714 895.653805 503.473064 895.653805z m0-477.553586a144.845027 144.845027 0 0 0-144.965442 144.965442 144.845027 144.845027 0 0 0 144.965442 144.965442 144.845027 144.845027 0 0 0 144.95039-144.965442 144.814923 144.814923 0 0 0-144.95039-144.965442zM247.649924 153.742617c-121.093031-25.573283-196.142112-66.52967-196.142111-127.911569 0-95.504696 204.676574-153.484852 460.499713-153.484853 255.823139 0 460.484661 58.01026 460.484661 153.484853 0 63.097823-80.166748 105.709926-209.809292 131.328365-18.694536 3.446899-35.778513-8.51941-39.195308-27.289207-3.446899-18.784848 8.51941-35.838721 27.289206-39.21036 97.22062-18.784848 155.23088-49.445694 155.23088-64.828798 0-3.416795-5.117667-8.51941-18.784848-18.754745-18.72464-11.936206-46.013847-23.887463-81.852567-34.122797-76.765004-22.186591-180.804163-34.122797-291.631756-34.122796-110.842645 0-216.597728 11.936206-291.631757 34.122796-35.808617 10.235334-63.082771 22.171539-81.852567 34.122797-15.368053 10.235334-20.470668 15.368053-20.470668 18.754745 0 13.637077 52.877541 42.642207 141.548647 61.381899a32.707913 32.707913 0 0 1 25.573283 40.956388c-1.730976 18.754744-20.48572 30.721054-39.255516 25.573282z"  horiz-adv-x="1024" />

    
    <glyph glyph-name="zhongdian" unicode="&#58898;" d="M470.416361 604.511802c19.192449-35.186156 38.384898-60.776088 63.974829-83.167278 28.788673 22.39119 54.378605 51.179864 73.571055 83.167278h-137.545884zM774.296803 770.84636C607.962245 937.180918 339.267959 937.180918 172.933402 774.045102 6.598844 607.710544 6.598844 339.016258 169.73466 172.681701l297.482959-300.681701 300.681701 297.482959c169.533299 166.334558 169.533299 435.028843 6.397483 601.363401zM323.274252 684.48034l31.987415-12.794966c-28.788673-54.378605-54.378605-102.359728-76.769796-137.545885h51.179864c9.596224 19.192449 22.39119 41.583639 35.186156 63.97483l31.987415-15.993707c-41.583639-73.571054-76.769796-127.94966-102.359728-166.334558 25.589932 3.198741 54.378605 6.397483 86.366021 12.794966-3.198741-12.794966-3.198741-22.39119-3.198742-31.987415-31.987415-3.198741-73.571054-9.596224-121.552177-19.192449l-6.397483 31.987415c15.993707 19.192449 38.384898 51.179864 67.173572 95.962245-31.987415-3.198741-51.179864-3.198741-67.173572-3.198741l-9.596224 28.788673c28.788673 31.987415 54.378605 86.36602 83.167279 153.539592z m67.173571-371.054014c-38.384898-9.596224-86.36602-19.192449-140.744626-35.186156l-9.596224 35.186156c44.782381 9.596224 95.962245 19.192449 150.34085 35.186157v-35.186157z m223.911905-60.776088c-73.571054 25.589932-140.744626 47.981122-198.321973 63.97483l12.794966 31.987415c54.378605-15.993707 121.552177-35.186156 198.321973-57.577347l-12.794966-38.384898z m-147.142109 143.943367l12.794966 28.788674c44.782381-12.794966 89.564762-28.788673 131.148401-44.782381l-15.993707-35.186157c-38.384898 22.39119-83.167279 38.384898-127.94966 51.179864z m195.123231 22.391191c-51.179864 15.993707-92.763503 35.186156-131.148401 60.776088-38.384898-25.589932-83.167279-47.981122-137.545884-67.173571-3.198741 9.596224-9.596224 22.39119-15.993708 31.987415 47.981122 12.794966 89.564762 31.987415 127.94966 57.577347-22.39119 22.39119-41.583639 47.981122-57.577347 76.769795-12.794966-22.39119-28.788673-44.782381-44.782381-67.173571l-22.39119 22.39119c35.186156 47.981122 63.97483 95.962245 83.167279 150.340851l31.987415-9.596225-19.192449-38.384898H639.94966v-31.987415c-22.39119-38.384898-51.179864-73.571054-86.366021-102.359727 31.987415-22.39119 73.571054-38.384898 118.353436-44.782381 0-15.993707-3.198741-28.788673-9.596225-38.384898z"  horiz-adv-x="1024" />

    
    <glyph glyph-name="shebei" unicode="&#59448;" d="M256 663.273h512c12.853 0 23.273 10.42 23.273 23.273S780.854 709.819 768 709.819H256c-12.853 0-23.273-10.42-23.273-23.273 0-12.854 10.42-23.273 23.273-23.273zM349.091 756.364h325.818c12.853 0 23.273 10.42 23.273 23.273s-10.42 23.273-23.273 23.273H349.091c-12.853 0-23.273-10.42-23.273-23.273 0-12.854 10.42-23.273 23.273-23.273zM209.455 570.182h605.091c12.853 0 23.273 10.42 23.273 23.273s-10.419 23.273-23.273 23.273H209.455c-12.853 0-23.273-10.42-23.273-23.273 0-12.854 10.419-23.273 23.273-23.273zM116.364 477.091h791.273c12.853 0 23.272 10.42 23.272 23.273s-10.419 23.273-23.272 23.273H116.364c-12.853 0-23.273-10.42-23.273-23.273 0-12.854 10.42-23.273 23.273-23.273zM945.715 430.545H78.286c-17.53 0-31.74-14.21-31.74-31.74v-401.974c0-17.53 14.21-31.74 31.74-31.74h867.429c17.529 0 31.74 14.21 31.74 31.74V398.805c-0.001 17.53-14.211 31.74-31.74 31.74z m-14.806-418.909H93.091V384h837.818v-372.364zM558.546 104.72699999999998c51.413 0 93.091 41.678 93.091 93.091s-41.678 93.091-93.091 93.091-93.091-41.678-93.091-93.091 41.678-93.091 93.091-93.091z m0 139.637c25.665 0 46.546-20.88 46.546-46.546s-20.88-46.545-46.546-46.545S512 172.15300000000002 512 197.81799999999998s20.88 46.546 46.546 46.546zM791.273 104.72699999999998c51.413 0 93.091 41.678 93.091 93.091s-41.678 93.091-93.091 93.091-93.091-41.678-93.091-93.091 41.678-93.091 93.091-93.091z m0 139.637c25.665 0 46.545-20.88 46.545-46.546s-20.88-46.545-46.545-46.545-46.545 20.88-46.545 46.545 20.88 46.546 46.545 46.546zM209.455 104.72699999999998c12.853 0 23.273 10.42 23.273 23.273V267.63599999999997c0 12.853-10.42 23.273-23.273 23.273s-23.273-10.42-23.273-23.273V128c0-12.853 10.419-23.273 23.273-23.273zM349.091 104.72699999999998c12.853 0 23.273 10.42 23.273 23.273V267.63599999999997c0 12.853-10.419 23.273-23.273 23.273-12.853 0-23.273-10.42-23.273-23.273V128c0-12.853 10.42-23.273 23.273-23.273z"  horiz-adv-x="1024" />

    
    <glyph glyph-name="renzheng" unicode="&#58886;" d="M512.09709-127.90692000000001l-0.13962-0.09308-0.116351 0.09308C5.530655 8.82808799999998 47.393534 725.942234 47.393534 725.942234a940.483672 940.483672 0 0 1 50.44954 7.446426l27.458698 104.715374c44.725099-36.184979 108.485127-54.684695 174.409271-51.217453 79.769844 28.552392 155.816475 65.412203 212.130076 108.950528A0.628292 0.628292 0 0 1 511.95747 895.97673l0.13962-0.139621c56.03436-43.491785 132.243881-80.398137 212.176617-108.973798 65.900875-3.420702 129.614362 15.079014 174.316191 51.240723l27.481968-104.692104c17.406022-3.025111 34.346642-5.58482 50.44954-7.469696 0 0 41.862879-717.090876-464.424316-853.849154zM733.023258 543.993455a22.967572 22.967572 0 0 1-31.786934-8.726281L488.687387 265.19459199999994V523.6088629999999a22.804681 22.804681 0 0 1-5.212499 14.0784A22.827951 22.827951 0 0 1 465.417304 546.878946h-46.540166a23.270083 23.270083 0 0 1 0-46.540166h23.270083v-302.511079c0-1.047154 0.465402-1.931417 0.581752-2.93203 0.209431-1.512555 0.418861-2.978571 0.907533-4.421316 0.488672-1.466015 1.163504-2.74587 1.931417-4.048994a22.595251 22.595251 0 0 1 2.65279-3.955914c0.791183-0.884263 1.675446-1.582366 2.582979-2.350279 1.023884-0.860993 1.791796-1.977957 2.97857-2.676059 0.651562-0.395591 1.396205-0.395591 2.071038-0.721373 0.535212-0.232701 1.116964-0.372321 1.675446-0.581752 2.513169-0.930803 5.026338-1.512555 7.632587-1.535825L465.417304 174.55761800000005c0.186161 0 0.349051 0.11635 0.535212 0.116351a22.269469 22.269469 0 0 1 7.888558 1.582366c0.605022 0.232701 1.140234 0.581752 1.721986 0.860993a22.897762 22.897762 0 0 1 5.282309 3.560322c1.000614 0.907533 1.745256 1.954687 2.582979 3.001841 0.674832 0.884263 1.582366 1.489285 2.140848 2.489899l255.970912 325.245949a24.200886 24.200886 0 0 1-8.51685 32.578116z"  horiz-adv-x="1024" />

    
    <glyph glyph-name="jianzhu" unicode="&#58998;" d="M1000.727273-11.636364h-46.545455V546.909091c0 51.2-41.890909 93.090909-93.090909 93.090909h-186.181818v-651.636364h-46.545455V779.636364c0 51.2-41.890909 93.090909-93.090909 93.090909H162.909091C111.709091 872.727273 69.818182 830.836364 69.818182 779.636364v-791.272728H23.272727c-13.963636 0-23.272727-9.309091-23.272727-23.272727v-46.545454c0-13.963636 9.309091-23.272727 23.272727-23.272728h977.454546c13.963636 0 23.272727 9.309091 23.272727 23.272728v46.545454c0 13.963636-9.309091 23.272727-23.272727 23.272727z m-698.181818 209.454546c0-13.963636-9.309091-23.272727-23.272728-23.272727H186.181818c-13.963636 0-23.272727 9.309091-23.272727 23.272727v46.545454c0 13.963636 9.309091 23.272727 23.272727 23.272728h93.090909c13.963636 0 23.272727-9.309091 23.272728-23.272728v-46.545454z m0 186.181818c0-13.963636-9.309091-23.272727-23.272728-23.272727H186.181818c-13.963636 0-23.272727 9.309091-23.272727 23.272727v46.545455c0 13.963636 9.309091 23.272727 23.272727 23.272727h93.090909c13.963636 0 23.272727-9.309091 23.272728-23.272727v-46.545455z m0 186.181818c0-13.963636-9.309091-23.272727-23.272728-23.272727H186.181818c-13.963636 0-23.272727 9.309091-23.272727 23.272727v46.545455c0 13.963636 9.309091 23.272727 23.272727 23.272727h93.090909c13.963636 0 23.272727-9.309091 23.272728-23.272727v-46.545455z m232.727272-372.363636c0-13.963636-9.309091-23.272727-23.272727-23.272727h-93.090909c-13.963636 0-23.272727 9.309091-23.272727 23.272727v46.545454c0 13.963636 9.309091 23.272727 23.272727 23.272728h93.090909c13.963636 0 23.272727-9.309091 23.272727-23.272728v-46.545454z m0 186.181818c0-13.963636-9.309091-23.272727-23.272727-23.272727h-93.090909c-13.963636 0-23.272727 9.309091-23.272727 23.272727v46.545455c0 13.963636 9.309091 23.272727 23.272727 23.272727h93.090909c13.963636 0 23.272727-9.309091 23.272727-23.272727v-46.545455z m0 186.181818c0-13.963636-9.309091-23.272727-23.272727-23.272727h-93.090909c-13.963636 0-23.272727 9.309091-23.272727 23.272727v46.545455c0 13.963636 9.309091 23.272727 23.272727 23.272727h93.090909c13.963636 0 23.272727-9.309091 23.272727-23.272727v-46.545455z m349.090909-372.363636c0-13.963636-9.309091-23.272727-23.272727-23.272727h-93.090909c-13.963636 0-23.272727 9.309091-23.272727 23.272727v46.545454c0 13.963636 9.309091 23.272727 23.272727 23.272728h93.090909c13.963636 0 23.272727-9.309091 23.272727-23.272728v-46.545454z m0 186.181818c0-13.963636-9.309091-23.272727-23.272727-23.272727h-93.090909c-13.963636 0-23.272727 9.309091-23.272727 23.272727v46.545455c0 13.963636 9.309091 23.272727 23.272727 23.272727h93.090909c13.963636 0 23.272727-9.309091 23.272727-23.272727v-46.545455z"  horiz-adv-x="1024" />

    
    <glyph glyph-name="kehuchaxun" unicode="&#59008;" d="M510.86154 67.92040999999995c2.704592-13.100619 7.277086-26.831422 13.517633-41.801275 6.445723-14.972517 15.596039-30.159537 27.450947-45.338562 12.064081-15.386866 27.450947-30.568556 46.164595-45.54507 19.134658-14.971185 42.428794-28.903167 70.503262-41.794613-18.92815-4.78966-40.556896-8.526794-65.094077-11.235384-21.209068-2.701928-46.792114-4.990839-77.36067-7.069245-30.36338-2.082403-65.713602-3.122938-105.540392-3.122938-20.38037 0-43.67184 0.623522-69.875743 1.869233-26.305159 1.456217-53.653518 3.537287-82.039749 6.244544-28.390227 2.909768-56.362108 5.818205-84.123483 9.144987a2364.876978 2364.876978 0 0 0-76.114959 10.401356c-23.18755 3.328114-42.631305 6.862737-58.333929 10.6052-15.802547 3.74646-25.785558 7.278418-30.048954 10.6052-6.966657 5.410517-12.375842 22.254932-16.220893 50.120228-3.85038 27.869293-2.290244 63.426024 4.781666 107.104525 4.159477 25.162036 14.662089 44.083524 31.503839 56.982965 16.848412 12.896776 36.289502 23.288806 58.333929 31.197407 22.043095 7.899275 45.129389 14.969853 69.360139 21.416909 24.120168 6.447056 45.646326 15.594707 64.570479 27.032601 14.766009 8.941143 25.996063 17.258764 33.690162 25.576385 7.692767 8.11511 13.101952 16.22489 16.324813 24.542511 3.117609 8.10978 4.68041 16.636574 4.680411 25.368544 0 8.739964-0.311761 18.300631-1.041868 28.701988-1.453552 16.219561-6.85874 28.700655-16.324813 37.641798-9.462077 8.942475-20.171197 18.091459-32.023441 27.662784-5.615693 4.572493-10.502612 11.227389-14.766008 19.754184-4.159477 8.524129-8.007192 17.258764-11.541815 25.99473a3790.511621 3790.511621 0 0 0-10.502612 31.610424c-4.885586 1.249708-9.772505 3.74646-14.662089 7.073242-4.260732 3.53329-8.630714 8.316289-13.20454 14.350328-4.575158 6.133962-8.522797 14.972517-12.062748 26.514332-3.432035 11.541815-4.679078 21.939174-3.638543 31.194742 1.039203 9.150316 2.913765 17.469269 5.718281 24.952863 2.80718 8.213701 7.073242 15.596039 12.684938 22.460108 0 25.785558 1.352296 51.676368 4.159477 77.465923 2.805848 21.839251 7.694099 45.128057 14.662088 69.874412 7.070577 24.85294 17.88495 47.103875 32.65096 66.864719 13.309792 18.403219 27.971881 33.480989 44.087521 45.437153 16.119637 11.854908 32.650959 21.214397 49.495374 27.971881 16.740495 6.864069 33.79275 11.54448 50.950258 14.350328C388.788494 892.802452 405.009387 894.156081 420.504171 894.156081c20.275117 0 39.826789-2.390167 58.333928-7.177162 18.50714-4.781666 35.560728-10.915629 51.364608-18.297967 15.805212-7.487591 29.949031-16.014385 42.635301-25.473797 12.684938-9.571326 22.670613-19.131994 30.567224-28.596735 17.469269-21.837919 30.569888-45.752911 39.511031-71.958147 8.737299-26.202571 14.768674-50.843673 18.297967-73.927303 3.328114-27.244439 4.78966-54.38096 4.166138-81.628064 4.988174-3.428038 8.73197-7.798019 11.643071-13.205872 2.699263-4.784331 4.990839-10.915629 6.654896-18.403219 1.866568-7.486259 2.079738-16.636574 0.62219-27.554868-1.458881-14.972517-4.364653-26.72617-8.941143-35.149043-4.577822-8.525462-9.568662-15.183022-15.392195-19.962024-6.23655-5.409185-12.891447-9.148983-19.963357-11.231386-3.326782-10.814373-6.861404-21.420905-10.401356-31.610424-3.530626-8.737299-7.480929-17.467937-11.645735-25.994731-4.154147-8.526794-9.142322-15.183022-14.555504-19.754183-6.23655-5.621022-11.227389-10.819702-14.763344-15.810541-3.534623-5.194683-6.445723-10.397359-8.524129-15.799883-2.082403-5.618358-4.159477-11.645735-6.654896-17.887615-2.49542-6.653564-6.240547-13.517633-11.231387-21.005223-16.014385-24.537182-28.700655-47.619479-37.850971-69.25089-8.941143-22.047091-15.389531-42.843142-18.716312-62.807831-3.531958-19.964689-4.575158-39.515028-3.328115-58.230009 1.461546-18.708319 4.163474-37.220788 8.529459-55.518754z m496.405959-128.313593c9.981678-11.645735 15.39486-21.209068 16.223558-29.528021 1.249708-8.113777-2.077074-16.014385-9.979014-23.501975-4.159477-4.781666-9.572658-7.282415-16.226222-7.6941-6.652232-0.206508-13.724141 0.831362-21.001227 3.743796-7.282415 2.701928-14.350328 6.02871-21.006556 9.981678-6.654896 4.163474-12.477098 8.316289-17.467937 12.479762l-73.413031 65.300586c-19.755516-11.645735-40.552899-19.963356-62.591996-24.954195-22.047091-5.19868-44.094183-7.069245-66.135945-5.823534-22.041762 1.454884-43.669176 6.654896-64.6744 15.805212-21.009221 9.150316-39.932042 22.457443-56.775124 39.515028-19.551672 18.922821-34.315016 40.339729-44.088854 64.466559-9.981678 24.122833-14.763344 49.079693-14.763344 74.033888 0 25.369876 4.781666 49.911055 14.763344 74.032556 9.773838 24.122833 24.537182 45.754243 44.088854 64.883572 18.922821 18.922821 40.760739 33.277146 65.297921 42.837813 24.333338 9.355492 49.288866 14.145152 74.453566 14.145152 25.368544 0 50.120228-4.78966 74.65741-14.145152 24.542511-9.564665 46.584273-23.914992 66.343786-42.837813 16.636574-17.056252 29.949031-36.182917 39.301859-57.189473 9.358156-21.005224 15.183022-42.632637 16.848411-64.260051 1.664057-21.837919 0-43.67184-5.411849-65.30325-4.988174-21.833922-13.724141-42.006451-25.782893-60.308415l40.133221-38.678336c10.400024-10.189519 20.173861-19.963356 29.324177-29.119001 9.150316-9.146319 14.972517-14.973849 17.882285-17.882286z m-251.219333 76.53064c16.432731 0 32.02877 3.117609 46.379097 9.148983 14.350328 6.24188 27.032601 14.560833 37.643131 25.369877 10.809044 10.609197 19.339834 23.086294 25.577717 37.437954 6.445723 14.555504 9.564665 29.949031 9.564665 46.375101 0 16.428734-3.118941 31.823594-9.564665 45.956754-6.24188 13.937311-14.768674 26.205236-25.577717 37.019609-10.610529 10.813041-23.288806 19.131994-37.643131 25.373873-14.350328 6.026045-29.946367 9.144986-46.379097 9.144987-16.219561 0-31.614421-3.118941-46.165927-9.144987-14.554171-6.24188-27.036598-14.560833-37.845642-25.373873-10.817037-10.814373-19.134658-23.082298-25.373873-37.019609-6.445723-14.133161-9.564665-29.528021-9.564665-45.956754 0-16.427401 3.118941-31.819597 9.564665-46.375101 6.239215-14.350328 14.556836-26.828758 25.373873-37.437954 10.809044-10.809044 23.29147-19.127997 37.845642-25.369877 14.555504-6.031374 29.950364-9.148983 46.165927-9.148983z"  horiz-adv-x="1024" />

    
    <glyph glyph-name="yudingbaoliu" unicode="&#58937;" d="M814-7.5H210c-49.4 0-89.5 40-89.5 89.5V641.2c0 49.5 40.1 89.5 89.5 89.5h89.5V742c0 18.5 15 33.6 33.6 33.6s33.6-15 33.6-33.6v-11.2h290.8V742c0 18.5 15 33.6 33.6 33.6 18.5 0 33.6-15 33.6-33.6v-11.2h89.5c49.4 0 89.5-40.1 89.5-89.5V82c-0.2-49.5-40.2-89.5-89.7-89.5z m22.4 626.4c0 24.7-20 44.7-44.7 44.7h-67.1v-11.2c0-18.5-15-33.6-33.6-33.6-18.5 0-33.6 15-33.6 33.6v11.2H366.6v-11.2c0-18.5-15-33.6-33.6-33.6-18.5 0-33.6 15-33.6 33.6v11.2h-67.1c-24.7 0-44.7-20-44.7-44.7v-514.6c0-24.7 20-44.7 44.7-44.7h559.3c24.7 0 44.7 20 44.7 44.7V618.9h0.1zM510.7 201.3c-13.2-13.2-34.4-13.2-47.5 0L337.8 326.7c-13.1 13.1-13.1 34.3 0 47.5 13.1 13.1 34.3 13.1 47.5 0L487 272.5l174.2 174.3c13.1 13.1 34.4 13.1 47.5 0 13.1-13.1 13.1-34.3 0-47.4l-198-198.1z"  horiz-adv-x="1024" />

    
    </font>
</defs>
</svg>
